0
SECTION
2
HEADER
9
$INSUNITS
70
4
9
$ACADVER
1
AC1014
9
$HANDSEED
5
FFFF
0
ENDSEC
0
SECTION
2
TABLES
0
TABLE
2
VPORT
5
8
100
AcDbSymbolTable
0
ENDTAB
0
TABLE
2
LTYPE
5
5
100
AcDbSymbolTable
0
LTYPE
5
14
100
AcDbSymbolTableRecord
100
AcDbLinetypeTableRecord
2
BYBLOCK
70
0
0
LTYPE
5
15
100
AcDbSymbolTableRecord
100
AcDbLinetypeTableRecord
2
BYLAYER
70
0
0
ENDTAB
0
TABLE
2
LAYER
5
2
100
AcDbSymbolTable
70
2
0
LAYER
5
50
100
AcDbSymbolTableRecord
100
AcDbLayerTableRecord
2
0
70
0
6
CONTINUOUS
0
ENDTAB
0
TABLE
2
STYLE
5
3
100
AcDbSymbolTable
70
1
0
STYLE
5
11
100
AcDbSymbolTableRecord
100
AcDbTextStyleTableRecord
2
STANDARD
70
0
0
ENDTAB
0
TABLE
2
VIEW
5
6
100
AcDbSymbolTable
70
0
0
ENDTAB
0
TABLE
2
UCS
5
7
100
AcDbSymbolTable
70
0
0
ENDTAB
0
TABLE
2
APPID
5
9
100
AcDbSymbolTable
70
2
0
APPID
5
12
100
AcDbSymbolTableRecord
100
AcDbRegAppTableRecord
2
ACAD
70
0
0
ENDTAB
0
TABLE
2
DIMSTYLE
5
A
100
AcDbSymbolTable
70
1
0
ENDTAB
0
TABLE
2
BLOCK_RECORD
5
1
100
AcDbSymbolTable
70
1
0
BLOCK_RECORD
5
1F
100
AcDbSymbolTableRecord
100
AcDbBlockTableRecord
2
*MODEL_SPACE
0
BLOCK_RECORD
5
1B
100
AcDbSymbolTableRecord
100
AcDbBlockTableRecord
2
*PAPER_SPACE
0
ENDTAB
0
ENDSEC
0
SECTION
2
BLOCKS
0
BLOCK
5
20
100
AcDbEntity
100
AcDbBlockBegin
2
*MODEL_SPACE
0
ENDBLK
5
21
100
AcDbEntity
100
AcDbBlockEnd
0
BLOCK
5
1C
100
AcDbEntity
100
AcDbBlockBegin
2
*PAPER_SPACE
0
ENDBLK
5
1D
100
AcDbEntity
100
AcDbBlockEnd
0
ENDSEC
0
SECTION
2
ENTITIES
0
SPLINE
5
100
100
AcDbEntity
8
0
100
AcDbSpline
70
0
71
3
72
9
73
5
74
0
42
0.000000001
43
0.0000000001
44
0.0000000001
40
0
40
0
40
0
40
0
40
0.069989683157695534
40
0.13550766122389904
40
0.13550766122389904
40
0.13550766122389904
40
0.13550766122389904
10
-17.111907752227133
20
-31.041449455876684
30
0
10
-16.872804020048715
20
-31.058989060793568
30
0
10
-16.409873112583384
20
-31.092947649171848
30
0
10
-16.052513548992646
20
-31.387704482931163
30
0
10
-15.879730137061422
20
-31.530219463963842
30
0
0
SPLINE
5
101
100
AcDbEntity
8
0
100
AcDbSpline
70
0
71
3
72
9
73
5
74
0
42
0.000000001
43
0.0000000001
44
0.0000000001
40
0
40
0
40
0
40
0
40
0.06928026793620147
40
0.15130292417266067
40
0.15130292417266067
40
0.15130292417266067
40
0.15130292417266067
10
-15.879730137061422
20
-31.530219463963842
30
0
10
-15.742911549203473
20
-31.722222084026185
30
0
10
-15.44410998505327
20
-32.141541447672367
30
0
10
-15.421834935648878
20
-32.65828898829335
30
0
10
-15.409759433936426
20
-32.938422410149911
30
0
0
SPLINE
5
102
100
AcDbEntity
8
0
100
AcDbSpline
70
0
71
3
72
9
73
5
74
0
42
0.000000001
43
0.0000000001
44
0.0000000001
40
0
40
0
40
0
40
0
40
0.088868208395622289
40
0.16345440135875963
40
0.16345440135875963
40
0.16345440135875963
40
0.16345440135875963
10
-15.409759433936426
20
-32.938422410149911
30
0
10
-15.423780328180383
20
-33.243947079088258
30
0
10
-15.44956881786117
20
-33.805895527956849
30
0
10
-15.807141752350793
20
-34.235871438508816
30
0
10
-15.970306547355005
20
-34.432074575085977
30
0
0
SPLINE
5
103
100
AcDbEntity
8
0
100
AcDbSpline
70
0
71
3
72
9
73
5
74
0
42
0.000000001
43
0.0000000001
44
0.0000000001
40
0
40
0
40
0
40
0
40
0.060117601600119752
40
0.12313651548329087
40
0.12313651548329087
40
0.12313651548329087
40
0.12313651548329087
10
-15.970306547355005
20
-34.432074575085977
30
0
10
-16.137470214248147
20
-34.549691452394867
30
0
10
-16.479864969008126
20
-34.790601469567186
30
0
10
-16.89794327178349
20
-34.820231158310165
30
0
10
-17.111907752227136
20
-34.835395066399911
30
0
0
SPLINE
5
104
100
AcDbEntity
8
0
100
AcDbSpline
70
0
71
3
72
9
73
5
74
0
42
0.000000001
43
0.0000000001
44
0.0000000001
40
0
40
0
40
0
40
0
40
0.069114034501532501
40
0.13473918609739491
40
0.13473918609739491
40
0.13473918609739491
40
0.13473918609739491
10
-17.111907752227136
20
-34.835395066399911
30
0
10
-17.347851301185315
20
-34.817159605796078
30
0
10
-17.807827946751431
20
-34.781609212339951
30
0
10
-18.162699645510902
20
-34.48794606598134
30
0
10
-18.335541041564294
20
-34.344916491170267
30
0
0
SPLINE
5
105
100
AcDbEntity
8
0
100
AcDbSpline
70
0
71
3
72
9
73
5
74
0
42
0.000000001
43
0.0000000001
44
0.0000000001
40
0
40
0
40
0
40
0
40
0.068415986048582553
40
0.14644320322999724
40
0.14644320322999724
40
0.14644320322999724
40
0.14644320322999724
10
-18.335541041564294
20
-34.344916491170267
30
0
10
-18.473950878699771
20
-34.157409227259109
30
0
10
-18.770214677255101
20
-33.756053258545272
30
0
10
-18.796586452156006
20
-33.256083570295772
30
0
10
-18.810637744139978
20
-32.989691941399911
30
0
0
SPLINE
5
106
100
AcDbEntity
8
0
100
AcDbSpline
70
0
71
3
72
9
73
5
74
0
42
0.000000001
43
0.0000000001
44
0.0000000001
40
0
40
0
40
0
40
0
40
0.062811800747616289
40
0.11299066336655221
40
0.11299066336655221
40
0.11299066336655221
40
0.11299066336655221
10
-18.810637744139978
20
-32.989691941399911
30
0
10
-18.806535822424845
20
-32.778310506769316
30
0
10
-18.799156972429238
20
-32.398061441498101
30
0
10
-18.661546206467285
20
-32.044439371924753
30
0
10
-18.600433619689291
20
-31.887396721501684
30
0
0
SPLINE
5
107
100
AcDbEntity
8
0
100
AcDbSpline
70
0
71
3
72
9
73
5
74
0
42
0.000000001
43
0.0000000001
44
0.0000000001
40
0
40
0
40
0
40
0
40
0.044030033699940366
40
0.08835273529949407
40
0.08835273529949407
40
0.08835273529949407
40
0.08835273529949407
10
-18.600433619689291
20
-31.887396721501684
30
0
10
-18.522169348779016
20
-31.760881403869558
30
0
10
-18.365120583877598
20
-31.507009820525809
30
0
10
-18.114395020275744
20
-31.344927189170711
30
0
10
-17.988616975020712
20
-31.263617424626684
30
0
0
SPLINE
5
108
100
AcDbEntity
8
0
100
AcDbSpline
70
0
71
3
72
9
73
5
74
0
42
0.000000001
43
0.0000000001
44
0.0000000001
40
0
40
0
40
0
40
0
40
0.045182979238208
40
0.091192055611838879
40
0.091192055611838879
40
0.091192055611838879
40
0.091192055611838879
10
-17.988616975020712
20
-31.263617424626684
30
0
10
-17.850979516743504
20
-31.198819939418605
30
0
10
-17.573188123588231
20
-31.068040252593413
30
0
10
-17.266593675939902
20
-31.050366423100431
30
0
10
-17.111907752227133
20
-31.041449455876684
30
0
0
SPLINE
5
109
100
AcDbEntity
8
0
100
AcDbSpline
70
0
71
3
72
9
73
5
74
0
42
0.000000001
43
0.0000000001
44
0.0000000001
40
0
40
0
40
0
40
0
40
0.059156540462984381
40
0.11031714348661514
40
0.11031714348661514
40
0.11031714348661514
40
0.11031714348661514
10
-24.747650178145719
20
-29.650336651463842
30
0
10
-24.547278555913266
20
-29.658569145517912
30
0
10
-24.173618689608301
20
-29.673921382493027
30
0
10
-23.848917466101422
20
-29.857456663820589
30
0
10
-23.698334248732877
20
-29.942572860379553
30
0
0
SPLINE
5
110
100
AcDbEntity
8
0
100
AcDbSpline
70
0
71
3
72
9
73
5
74
0
42
0.000000001
43
0.0000000001
44
0.0000000001
40
0
40
0
40
0
40
0
40
0.047115096716445502
40
0.099290067359551787
40
0.099290067359551787
40
0.099290067359551787
40
0.099290067359551787
10
-23.698334248732877
20
-29.942572860379553
30
0
10
-23.58245555315321
20
-30.056873574027957
30
0
10
-23.338253497092794
20
-30.297750200594102
30
0
10
-23.321111227479221
20
-30.641871082307638
30
0
10
-23.312103303145719
20
-30.822699813504553
30
0
0
LINE
5
111
100
AcDbEntity
8
0
100
AcDbLine
10
-23.312103303145712
20
-30.822699813504553
30
0
11
-23.910247834395719
21
-30.733832864423132
31
0
0
SPLINE
5
112
100
AcDbEntity
8
0
100
AcDbSpline
70
0
71
3
72
9
73
5
74
0
42
0.000000001
43
0.0000000001
44
0.0000000001
40
0
40
0
40
0
40
0
40
0.024954849863805258
40
0.046365780468387706
40
0.046365780468387706
40
0.046365780468387706
40
0.046365780468387706
10
-23.910247834395719
20
-30.733832864423132
30
0
10
-23.925867834876104
20
-30.649771001916164
30
0
10
-23.954889588849476
20
-30.493585174951342
30
0
10
-24.066981532377973
20
-30.38202751113203
30
0
10
-24.11874368972714
20
-30.330512075085974
30
0
0
SPLINE
5
113
100
AcDbEntity
8
0
100
AcDbSpline
70
0
71
3
72
9
73
5
74
0
42
0.000000001
43
0.0000000001
44
0.0000000001
40
0
40
0
40
0
40
0
40
0.029966902595240444
40
0.065684778244578357
40
0.065684778244578357
40
0.065684778244578357
40
0.065684778244578357
10
-24.11874368972714
20
-30.330512075085974
30
0
10
-24.207009336445729
20
-30.280767080247458
30
0
10
-24.400479763123926
20
-30.171730487481142
30
0
10
-24.623149663740989
20
-30.163881653473112
30
0
10
-24.744232447814298
20
-30.159613637585974
30
0
0
SPLINE
5
114
100
AcDbEntity
8
0
100
AcDbSpline
70
0
71
3
72
9
73
5
74
0
42
0.000000001
43
0.0000000001
44
0.0000000001
40
0
40
0
40
0
40
0
40
0.038094303040743474
40
0.068991225100469553
40
0.068991225100469553
40
0.068991225100469553
40
0.068991225100469553
10
-24.744232447814298
20
-30.159613637585974
30
0
10
-24.873350006121967
20
-30.163243818106498
30
0
10
-25.107190182174023
20
-30.169818307766509
30
0
10
-25.31212376088164
20
-30.280807050560981
30
0
10
-25.403900893401456
20
-30.330512075085974
30
0
0
SPLINE
5
115
100
AcDbEntity
8
0
100
AcDbSpline
70
0
71
3
72
9
73
5
74
0
42
0.000000001
43
0.0000000001
44
0.0000000001
40
0
40
0
40
0
40
0
40
0.028286627187849245
40
0.058132756185898776
40
0.058132756185898776
40
0.058132756185898776
40
0.058132756185898776
10
-25.403900893401456
20
-30.330512075085974
30
0
10
-25.475447199631329
20
-30.394486339904816
30
0
10
-25.622484311848439
20
-30.525961906581188
30
0
10
-25.685830676662555
20
-30.712999906937483
30
0
10
-25.718353541564298
20
-30.809027700085974
30
0
0
SPLINE
5
116
100
AcDbEntity
8
0
100
AcDbSpline
70
0
71
3
72
9
73
5
74
0
42
0.000000001
43
0.0000000001
44
0.0000000001
40
0
40
0
40
0
40
0
40
0.029348056184514575
40
0.079173831916079351
40
0.079173831916079351
40
0.079173831916079351
40
0.079173831916079351
10
-25.718353541564298
20
-30.809027700085974
30
0
10
-25.731853540332903
20
-30.906028641542392
30
0
10
-25.768273214148884
20
-31.167713305981071
30
0
10
-25.764906412199462
20
-31.432158104758976
30
0
10
-25.762787612151456
20
-31.598578838963842
30
0
0
SPLINE
5
117
100
AcDbEntity
8
0
100
AcDbSpline
70
0
71
3
72
9
73
5
74
0
42
0.000000001
43
0.0000000001
44
0.0000000001
40
0
40
0
40
0
40
0
40
0.057625369457445952
40
0.11408885764093075
40
0.11408885764093075
40
0.11408885764093075
40
0.11408885764093075
10
-25.762787612151456
20
-31.598578838963842
30
0
10
-25.621127169350324
20
-31.460012918155581
30
0
10
-25.340662536424638
20
-31.185674935391717
30
0
10
-24.950833880891405
20
-31.144071043272699
30
0
10
-24.757904561232877
20
-31.123480944295263
30
0
0
SPLINE
5
118
100
AcDbEntity
8
0
100
AcDbSpline
70
0
71
3
72
9
73
5
74
0
42
0.000000001
43
0.0000000001
44
0.0000000001
40
0
40
0
40
0
40
0
40
0.067752874209125111
40
0.13169244185608761
40
0.13169244185608761
40
0.13169244185608761
40
0.13169244185608761
10
-24.757904561232877
20
-31.123480944295263
30
0
10
-24.5246135660852
20
-31.143259825474235
30
0
10
-24.071161794884979
20
-31.181704381370132
30
0
10
-23.753462762016213
20
-31.506045273736731
30
0
10
-23.599212916564298
20
-31.663519887585974
30
0
0
SPLINE
5
119
100
AcDbEntity
8
0
100
AcDbSpline
70
0
71
3
72
9
73
5
74
0
42
0.000000001
43
0.0000000001
44
0.0000000001
40
0
40
0
40
0
40
0
40
0.066881415202032404
40
0.13778065919509019
40
0.13778065919509019
40
0.13778065919509019
40
0.13778065919509019
10
-23.599212916564298
20
-31.663519887585974
30
0
10
-23.479612252030368
20
-31.855983073581054
30
0
10
-23.233226042200968
20
-32.252471463623138
30
0
10
-23.204063264192733
20
-32.718910062827689
30
0
10
-23.189056666564298
20
-32.958930282254556
30
0
0
SPLINE
5
120
100
AcDbEntity
8
0
100
AcDbSpline
70
0
71
3
72
9
73
5
74
0
42
0.000000001
43
0.0000000001
44
0.0000000001
40
0
40
0
40
0
40
0
40
0.050165684574409439
40
0.098209977993968134
40
0.098209977993968134
40
0.098209977993968134
40
0.098209977993968134
10
-23.189056666564298
20
-32.958930282254556
30
0
10
-23.196190323836674
20
-33.127106351323022
30
0
10
-23.210155972460452
20
-33.456346711191486
30
0
10
-23.322222187269279
20
-33.766126306923923
30
0
10
-23.377044947814298
20
-33.917670397420267
30
0
0
SPLINE
5
121
100
AcDbEntity
8
0
100
AcDbSpline
70
0
71
3
72
9
73
5
74
0
42
0.000000001
43
0.0000000001
44
0.0000000001
40
0
40
0
40
0
40
0
40
0.045224406501168456
40
0.087980930367898558
40
0.087980930367898558
40
0.087980930367898558
40
0.087980930367898558
10
-23.377044947814298
20
-33.917670397420267
30
0
10
-23.445002769803615
20
-34.054545435517497
30
0
10
-23.577209975314251
20
-34.32082628091954
30
0
10
-23.809381131913607
20
-34.506099043531798
30
0
10
-23.92221048660214
20
-34.596136955876688
30
0
0
SPLINE
5
122
100
AcDbEntity
8
0
100
AcDbSpline
70
0
71
3
72
9
73
5
74
0
42
0.000000001
43
0.0000000001
44
0.0000000001
40
0
40
0
40
0
40
0
40
0.042781911665438155
40
0.08825151572028736
40
0.08825151572028736
40
0.08825151572028736
40
0.08825151572028736
10
-23.92221048660214
20
-34.596136955876688
30
0
10
-24.048779060563863
20
-34.665902785238522
30
0
10
-24.30986763888707
20
-34.809817349758525
30
0
10
-24.607812776085574
20
-34.826697993347679
30
0
10
-24.761322291564298
20
-34.835395364423135
30
0
0
SPLINE
5
123
100
AcDbEntity
8
0
100
AcDbSpline
70
0
71
3
72
9
73
5
74
0
42
0.000000001
43
0.0000000001
44
0.0000000001
40
0
40
0
40
0
40
0
40
0.060039879191709736
40
0.12135241458011348
40
0.12135241458011348
40
0.12135241458011348
40
0.12135241458011348
10
-24.761322291564298
20
-34.835395364423135
30
0
10
-24.966827381430228
20
-34.812854356577944
30
0
10
-25.382193621327289
20
-34.767294542569196
30
0
10
-25.673640780939195
20
-34.467389240833768
30
0
10
-25.820892604064298
20
-34.315863995213846
30
0
0
LINE
5
124
100
AcDbEntity
8
0
100
AcDbLine
10
-25.820892604064291
20
-34.315863995213846
30
0
11
-25.820892604064298
21
-34.753363876004556
31
0
0
LINE
5
125
100
AcDbEntity
8
0
100
AcDbLine
10
-25.820892604064298
20
-34.753363876004556
30
0
11
-26.388275178145719
21
-34.753363876004556
31
0
0
LINE
5
126
100
AcDbEntity
8
0
100
AcDbLine
10
-26.388275178145719
20
-34.753363876004556
30
0
11
-26.388275178145719
21
-31.615668682713842
31
0
0
SPLINE
5
127
100
AcDbEntity
8
0
100
AcDbSpline
70
0
71
3
72
9
73
5
74
0
42
0.000000001
43
0.0000000001
44
0.0000000001
40
0
40
0
40
0
40
0
40
0.072546667751683835
40
0.12199469941077568
40
0.12199469941077568
40
0.12199469941077568
40
0.12199469941077568
10
-26.388275178145719
20
-31.615668682713842
30
0
10
-26.388437961761113
20
-31.371894188154386
30
0
10
-26.38871169918896
20
-30.961962249039175
30
0
10
-26.265578123259424
20
-30.572224553639273
30
0
10
-26.215668471526456
20
-30.414252428670263
30
0
0
SPLINE
5
128
100
AcDbEntity
8
0
100
AcDbSpline
70
0
71
3
72
9
73
5
74
0
42
0.000000001
43
0.0000000001
44
0.0000000001
40
0
40
0
40
0
40
0
40
0.038725773282655189
40
0.079168785043100307
40
0.079168785043100307
40
0.079168785043100307
40
0.079168785043100307
10
-26.215668471526456
20
-30.414252428670263
30
0
10
-26.148426133925938
20
-30.301823296707944
30
0
10
-26.010959694393932
20
-30.071979525327567
30
0
10
-25.784486345852091
20
-29.928639415832635
30
0
10
-25.668793471526456
20
-29.855414776463842
30
0
0
SPLINE
5
129
100
AcDbEntity
8
0
100
AcDbSpline
70
0
71
3
72
9
73
5
74
0
42
0.000000001
43
0.0000000001
44
0.0000000001
40
0
40
0
40
0
40
0
40
0.044485533164640496
40
0.095118136451366547
40
0.095118136451366547
40
0.095118136451366547
40
0.095118136451366547
10
-25.668793471526456
20
-29.855414776463842
30
0
10
-25.531613906867882
20
-29.795667365937639
30
0
10
-25.238299122907843
20
-29.667916568256651
30
0
10
-24.918097569478572
20
-29.656443769372018
30
0
10
-24.747650178145719
20
-29.650336651463842
30
0
0
SPLINE
5
130
100
AcDbEntity
8
0
100
AcDbSpline
70
0
71
3
72
9
73
5
74
0
42
0.000000001
43
0.0000000001
44
0.0000000001
40
0
40
0
40
0
40
0
40
0.069989331022357312
40
0.13550745729423896
40
0.13550745729423896
40
0.13550745729423896
40
0.13550745729423896
10
-57.720788272094083
20
-31.04144945587668
30
0
10
-57.481685873204341
20
-31.058989388428987
30
0
10
-57.018755914691788
20
-31.092948730896719
30
0
10
-56.661396456778441
20
-31.387704473603584
30
0
10
-56.488612445067716
20
-31.530219463963839
30
0
0
SPLINE
5
131
100
AcDbEntity
8
0
100
AcDbSpline
70
0
71
3
72
9
73
5
74
0
42
0.000000001
43
0.0000000001
44
0.0000000001
40
0
40
0
40
0
40
0
40
0.06928026793620147
40
0.15130292417266067
40
0.15130292417266067
40
0.15130292417266067
40
0.15130292417266067
10
-56.488612445067716
20
-31.530219463963839
30
0
10
-56.351793857209771
20
-31.722222084026185
30
0
10
-56.05299229305956
20
-32.141541447672367
30
0
10
-56.030717243655168
20
-32.65828898829335
30
0
10
-56.018641741942716
20
-32.938422410149904
30
0
0
SPLINE
5
132
100
AcDbEntity
8
0
100
AcDbSpline
70
0
71
3
72
9
73
5
74
0
42
0.000000001
43
0.0000000001
44
0.0000000001
40
0
40
0
40
0
40
0
40
0.088868217794751778
40
0.16345430996837207
40
0.16345430996837207
40
0.16345430996837207
40
0.16345430996837207
10
-56.018641741942716
20
-32.938422410149904
30
0
10
-56.032662994064893
20
-33.243946990813882
30
0
10
-56.058452124840734
20
-33.805894903690287
30
0
10
-56.416023643556834
20
-34.235871349634749
30
0
10
-56.579187663268399
20
-34.43207457508597
30
0
0
SPLINE
5
133
100
AcDbEntity
8
0
100
AcDbSpline
70
0
71
3
72
9
73
5
74
0
42
0.000000001
43
0.0000000001
44
0.0000000001
40
0
40
0
40
0
40
0
40
0.060117807639378469
40
0.1231364273387677
40
0.1231364273387677
40
0.1231364273387677
40
0.1231364273387677
10
-56.579187663268399
20
-34.43207457508597
30
0
10
-56.74635213440591
20
-34.549691458582039
30
0
10
-57.088747117891046
20
-34.790600490316919
30
0
10
-57.506824902500774
20
-34.820230866451084
30
0
10
-57.720788272094083
20
-34.835395066399904
30
0
0
SPLINE
5
134
100
AcDbEntity
8
0
100
AcDbSpline
70
0
71
3
72
9
73
5
74
0
42
0.000000001
43
0.0000000001
44
0.0000000001
40
0
40
0
40
0
40
0
40
0.069114386455983001
40
0.13473943933187127
40
0.13473943933187127
40
0.13473943933187127
40
0.13473943933187127
10
-57.720788272094083
20
-34.835395066399904
30
0
10
-57.95673313305408
20
-34.817159897016339
30
0
10
-58.416710858519856
20
-34.78161018551846
30
0
10
-58.77158294538561
20
-34.487946059265852
30
0
10
-58.944423945617032
20
-34.34491649117026
30
0
0
SPLINE
5
135
100
AcDbEntity
8
0
100
AcDbSpline
70
0
71
3
72
9
73
5
74
0
42
0.000000001
43
0.0000000001
44
0.0000000001
40
0
40
0
40
0
40
0
40
0.068415923962356864
40
0.14644315929007359
40
0.14644315929007359
40
0.14644315929007359
40
0.14644315929007359
10
-58.944423945617032
20
-34.34491649117026
30
0
10
-59.08283320849683
20
-34.157409162876974
30
0
10
-59.379095957828135
20
-33.756052812556881
30
0
10
-59.405468786995158
20
-33.256083507831356
30
0
10
-59.419520648192716
20
-32.989691941399904
30
0
0
SPLINE
5
136
100
AcDbEntity
8
0
100
AcDbSpline
70
0
71
3
72
9
73
5
74
0
42
0.000000001
43
0.0000000001
44
0.0000000001
40
0
40
0
40
0
40
0
40
0.062811810721286152
40
0.11299063588690363
40
0.11299063588690363
40
0.11299063588690363
40
0.11299063588690363
10
-59.419520648192716
20
-32.989691941399904
30
0
10
-59.415418102354131
20
-32.778310555676825
30
0
10
-59.408038132604275
20
-32.398061731240183
30
0
10
-59.270428552937972
20
-32.044439406306644
30
0
10
-59.209316523742032
20
-31.887396721501673
30
0
0
SPLINE
5
137
100
AcDbEntity
8
0
100
AcDbSpline
70
0
71
3
72
9
73
5
74
0
42
0.000000001
43
0.0000000001
44
0.0000000001
40
0
40
0
40
0
40
0
40
0.04402989396481069
40
0.088352690710748027
40
0.088352690710748027
40
0.088352690710748027
40
0.088352690710748027
10
-59.209316523742032
20
-31.887396721501673
30
0
10
-59.13105316795415
20
-31.760881306931964
30
0
10
-58.974005820226303
20
-31.507008851491712
30
0
10
-58.72327971940318
20
-31.344927009007627
30
0
10
-58.597501071166349
20
-31.263617424626673
30
0
0
SPLINE
5
138
100
AcDbEntity
8
0
100
AcDbSpline
70
0
71
3
72
9
73
5
74
0
42
0.000000001
43
0.0000000001
44
0.0000000001
40
0
40
0
40
0
40
0
40
0.045183034641716857
40
0.091192406859034986
40
0.091192406859034986
40
0.091192406859034986
40
0.091192406859034986
10
-58.597501071166349
20
-31.263617424626673
30
0
10
-58.459863407736997
20
-31.198819940279712
30
0
10
-58.182070871177544
20
-31.068039911827292
30
0
10
-57.875475207944902
20
-31.050366324108971
30
0
10
-57.720788272094083
20
-31.04144945587668
30
0
0
LINE
5
139
100
AcDbEntity
8
0
100
AcDbLine
10
-41.734953673552823
20
-31.12348094429526
30
0
11
-41.092375071715665
21
-31.12348094429526
31
0
0
SPLINE
5
140
100
AcDbEntity
8
0
100
AcDbSpline
70
0
71
3
72
9
73
5
74
0
42
0.000000001
43
0.0000000001
44
0.0000000001
40
0
40
0
40
0
40
0
40
0.022202552669250791
40
0.046621440464016985
40
0.046621440464016985
40
0.046621440464016985
40
0.046621440464016985
10
-41.092375071715665
20
-31.12348094429526
30
0
10
-41.063136323571186
20
-31.191847117142881
30
0
10
-41.001740114938485
20
-31.335404009210627
30
0
10
-40.980468608817127
20
-31.490171909119429
30
0
10
-40.969327243041349
20
-31.57123461212668
30
0
0
SPLINE
5
141
100
AcDbEntity
8
0
100
AcDbSpline
70
0
71
3
72
9
73
5
74
0
42
0.000000001
43
0.0000000001
44
0.0000000001
40
0
40
0
40
0
40
0
40
0.04170029122896407
40
0.077812697068571884
40
0.077812697068571884
40
0.077812697068571884
40
0.077812697068571884
10
-40.969327243041349
20
-31.57123461212668
30
0
10
-40.860844500922973
20
-31.483245406780441
30
0
10
-40.658415824747166
20
-31.319057647435606
30
0
10
-40.421376696069814
20
-31.21115522771376
30
0
10
-40.311368258666349
20
-31.16107836212668
30
0
0
SPLINE
5
142
100
AcDbEntity
8
0
100
AcDbSpline
70
0
71
3
72
9
73
5
74
0
42
0.000000001
43
0.0000000001
44
0.0000000001
40
0
40
0
40
0
40
0
40
0.033975752042919395
40
0.069179875265444557
40
0.069179875265444557
40
0.069179875265444557
40
0.069179875265444557
10
-40.311368258666349
20
-31.16107836212668
30
0
10
-40.203022668401672
20
-31.126189686042171
30
0
10
-39.982414323644406
20
-31.055150956519604
30
0
10
-39.750777697587729
20
-31.046070368314929
30
0
10
-39.632902892302823
20
-31.04144945587668
30
0
0
SPLINE
5
143
100
AcDbEntity
8
0
100
AcDbSpline
70
0
71
3
72
9
73
5
74
0
42
0.000000001
43
0.0000000001
44
0.0000000001
40
0
40
0
40
0
40
0
40
0.053395110355797637
40
0.09817608785200066
40
0.09817608785200066
40
0.09817608785200066
40
0.09817608785200066
10
-39.632902892302823
20
-31.04144945587668
30
0
10
-39.4508548400309
20
-31.048735881727573
30
0
10
-39.116128205812174
20
-31.062133228033201
30
0
10
-38.839600308438108
20
-31.248622887290452
30
0
10
-38.713467868041349
20
-31.333686260838839
30
0
0
SPLINE
5
144
100
AcDbEntity
8
0
100
AcDbSpline
70
0
71
3
72
9
73
5
74
0
42
0.000000001
43
0.0000000001
44
0.0000000001
40
0
40
0
40
0
40
0
40
0.04108983247217346
40
0.083261926413603277
40
0.083261926413603277
40
0.083261926413603277
40
0.083261926413603277
10
-38.713467868041349
20
-31.333686260838839
30
0
10
-38.619762710915481
20
-31.438824857340094
30
0
10
-38.429884304804347
20
-31.651871286552129
30
0
10
-38.404856381029134
20
-31.936399101393363
30
0
10
-38.392179759215665
20
-32.08051219429526
30
0
0
SPLINE
5
145
100
AcDbEntity
8
0
100
AcDbSpline
70
0
71
3
72
9
73
5
74
0
42
0.000000001
43
0.0000000001
44
0.0000000001
40
0
40
0
40
0
40
0
40
0.025686357358831187
40
0.050606869567831884
40
0.050606869567831884
40
0.050606869567831884
40
0.050606869567831884
10
-38.392179759215665
20
-32.08051219429526
30
0
10
-38.396922129503686
20
-32.166882870057307
30
0
10
-38.40626547512705
20
-32.337049058346075
30
0
10
-38.478129755605778
20
-32.491510681065243
30
0
10
-38.513518126677823
20
-32.56757274117026
30
0
0
SPLINE
5
146
100
AcDbEntity
8
0
100
AcDbSpline
70
0
71
3
72
9
73
5
74
0
42
0.000000001
43
0.0000000001
44
0.0000000001
40
0
40
0
40
0
40
0
40
0.024312046658077766
40
0.047900841286014975
40
0.047900841286014975
40
0.047900841286014975
40
0.047900841286014975
10
-38.513518126677823
20
-32.56757274117026
30
0
10
-38.556588176618796
20
-32.637080206295359
30
0
10
-38.641446998067195
20
-32.774027379109548
30
0
10
-38.768716006663936
20
-32.872727593578325
30
0
10
-38.831389697264981
20
-32.921332566399904
30
0
0
SPLINE
5
147
100
AcDbEntity
8
0
100
AcDbSpline
70
0
71
3
72
9
73
5
74
0
42
0.000000001
43
0.0000000001
44
0.0000000001
40
0
40
0
40
0
40
0
40
0.023948386511333682
40
0.048802817689393527
40
0.048802817689393527
40
0.048802817689393527
40
0.048802817689393527
10
-38.831389697264981
20
-32.921332566399904
30
0
10
-38.89969999426809
20
-32.963262339223711
30
0
10
-39.03890498702922
20
-33.0487082233508
30
0
10
-39.194681757802947
20
-33.097926596604069
30
0
10
-39.274016173552823
20
-33.12299266304526
30
0
0
SPLINE
5
148
100
AcDbEntity
8
0
100
AcDbSpline
70
0
71
3
72
9
73
5
74
0
42
0.000000001
43
0.0000000001
44
0.0000000001
40
0
40
0
40
0
40
0
40
0.023210185823980694
40
0.055487586185740526
40
0.055487586185740526
40
0.055487586185740526
40
0.055487586185740526
10
-39.274016173552823
20
-33.12299266304526
30
0
10
-39.349605712272648
20
-33.139664423532977
30
0
10
-39.53031434925925
20
-33.179520879398773
30
0
10
-39.714025498953802
20
-33.202127535844923
30
0
10
-39.820891173552823
20
-33.215277938504549
30
0
0
SPLINE
5
149
100
AcDbEntity
8
0
100
AcDbSpline
70
0
71
3
72
9
73
5
74
0
42
0.000000001
43
0.0000000001
44
0.0000000001
40
0
40
0
40
0
40
0
40
0.065414476227814836
40
0.11187895799722611
40
0.11187895799722611
40
0.11187895799722611
40
0.11187895799722611
10
-39.820891173552823
20
-33.215277938504549
30
0
10
-40.037763298881003
20
-33.241532446533682
30
0
10
-40.408681615430091
20
-33.286435764123496
30
0
10
-40.768585802010726
20
-33.385888412582332
30
0
10
-40.918057711791349
20
-33.427192120213839
30
0
0
SPLINE
5
150
100
AcDbEntity
8
0
100
AcDbSpline
70
0
71
3
72
9
73
5
74
0
42
0.000000001
43
0.0000000001
44
0.0000000001
40
0
40
0
40
0
40
0
40
0.010342525703637633
40
0.016068251222158644
40
0.016068251222158644
40
0.016068251222158644
40
0.016068251222158644
10
-40.918057711791349
20
-33.427192120213839
30
0
10
-40.919021137671521
20
-33.461654451001131
30
0
10
-40.920517925740533
20
-33.515195472281498
30
0
10
-40.921224761799436
20
-33.568752189205483
30
0
10
-40.921476634215665
20
-33.587836472649904
30
0
0
SPLINE
5
151
100
AcDbEntity
8
0
100
AcDbSpline
70
0
71
3
72
9
73
5
74
0
42
0.000000001
43
0.0000000001
44
0.0000000001
40
0
40
0
40
0
40
0
40
0.03233842433154728
40
0.057020484496007509
40
0.057020484496007509
40
0.057020484496007509
40
0.057020484496007509
10
-40.921476634215665
20
-33.587836472649904
30
0
10
-40.919022691588971
20
-33.699009612519156
30
0
10
-40.914695795631879
20
-33.895034818734999
30
0
10
-40.79777148614663
20
-34.050378912493251
30
0
10
-40.747159274291349
20
-34.117621628899904
30
0
0
SPLINE
5
152
100
AcDbEntity
8
0
100
AcDbSpline
70
0
71
3
72
9
73
5
74
0
42
0.000000001
43
0.0000000001
44
0.0000000001
40
0
40
0
40
0
40
0
40
0.033219814668911302
40
0.074310838229382711
40
0.074310838229382711
40
0.074310838229382711
40
0.074310838229382711
10
-40.747159274291349
20
-34.117621628899904
30
0
10
-40.652175363860088
20
-34.178256775019065
30
0
10
-40.439701752167814
20
-34.313894152264652
30
0
10
-40.186491287943056
20
-34.32176532675583
30
0
10
-40.046475680541349
20
-34.326117782254549
30
0
0
SPLINE
5
153
100
AcDbEntity
8
0
100
AcDbSpline
70
0
71
3
72
9
73
5
74
0
42
0.000000001
43
0.0000000001
44
0.0000000001
40
0
40
0
40
0
40
0
40
0.037917071248290336
40
0.066640452885145571
40
0.066640452885145571
40
0.066640452885145571
40
0.066640452885145571
10
-40.046475680541349
20
-34.326117782254549
30
0
10
-39.917946548477502
20
-34.324117191640163
30
0
10
-39.692052530619904
20
-34.320601090311882
30
0
10
-39.491883455589516
20
-34.21816854870908
30
0
10
-39.405606539916349
20
-34.17401805367026
30
0
0
SPLINE
5
154
100
AcDbEntity
8
0
100
AcDbSpline
70
0
71
3
72
9
73
5
74
0
42
0.000000001
43
0.0000000001
44
0.0000000001
40
0
40
0
40
0
40
0
40
0.027698065105806659
40
0.062808184900029207
40
0.062808184900029207
40
0.062808184900029207
40
0.062808184900029207
10
-39.405606539916349
20
-34.17401805367026
30
0
10
-39.339738659242329
20
-34.107326934307146
30
0
10
-39.190376528257964
20
-33.956098025711995
30
0
10
-39.132212708075997
20
-33.750575945468285
30
0
10
-39.099698813628507
20
-33.63568797554526
30
0
0
LINE
5
155
100
AcDbEntity
8
0
100
AcDbLine
10
-39.099698813628507
20
-33.63568797554526
30
0
11
-38.498137744139981
21
-33.717719165940615
31
0
0
SPLINE
5
156
100
AcDbEntity
8
0
100
AcDbSpline
70
0
71
3
72
9
73
5
74
0
42
0.000000001
43
0.0000000001
44
0.0000000001
40
0
40
0
40
0
40
0
40
0.036554026728064515
40
0.068421277182381904
40
0.068421277182381904
40
0.068421277182381904
40
0.068421277182381904
10
-38.498137744139981
20
-33.717719165940615
30
0
10
-38.52747939204022
20
-33.837094322111142
30
0
10
-38.582400647061036
20
-34.060538943131867
30
0
10
-38.709131398855362
20
-34.2522219763393
30
0
10
-38.768156321715665
20
-34.341498462815615
30
0
0
SPLINE
5
157
100
AcDbEntity
8
0
100
AcDbSpline
70
0
71
3
72
9
73
5
74
0
42
0.000000001
43
0.0000000001
44
0.0000000001
40
0
40
0
40
0
40
0
40
0.031148289978175411
40
0.066152373489854421
40
0.066152373489854421
40
0.066152373489854421
40
0.066152373489854421
10
-38.768156321715665
20
-34.341498462815615
30
0
10
-38.840915562894047
20
-34.417202940696065
30
0
10
-38.995440787252861
20
-34.577983224272181
30
0
10
-39.202204677432817
20
-34.662499839669906
30
0
10
-39.311612399291349
20
-34.707221238274904
30
0
0
SPLINE
5
158
100
AcDbEntity
8
0
100
AcDbSpline
70
0
71
3
72
9
73
5
74
0
42
0.000000001
43
0.0000000001
44
0.0000000001
40
0
40
0
40
0
40
0
40
0.039552767403615109
40
0.083675623900309373
40
0.083675623900309373
40
0.083675623900309373
40
0.083675623900309373
10
-39.311612399291349
20
-34.707221238274904
30
0
10
-39.43864966305248
20
-34.744575059798649
30
0
10
-39.70740259746357
20
-34.823598716706535
30
0
10
-39.987595670344547
20
-34.831322336872226
30
0
10
-40.135343821715665
20
-34.835395066399904
30
0
0
SPLINE
5
159
100
AcDbEntity
8
0
100
AcDbSpline
70
0
71
3
72
9
73
5
74
0
42
0.000000001
43
0.0000000001
44
0.0000000001
40
0
40
0
40
0
40
0
40
0.042215305455118105
40
0.076618153555307628
40
0.076618153555307628
40
0.076618153555307628
40
0.076618153555307628
10
-40.135343821715665
20
-34.835395066399904
30
0
10
-40.276802762215539
20
-34.833013025260669
30
0
10
-40.533541940296672
20
-34.828689768758956
30
0
10
-40.780035905564496
20
-34.757834957172683
30
0
10
-40.890715869139981
20
-34.726019947190615
30
0
0
SPLINE
5
160
100
AcDbEntity
8
0
100
AcDbSpline
70
0
71
3
72
9
73
5
74
0
42
0.000000001
43
0.0000000001
44
0.0000000001
40
0
40
0
40
0
40
0
40
0.028069152682829376
40
0.051240114994032686
40
0.051240114994032686
40
0.051240114994032686
40
0.051240114994032686
10
-40.890715869139981
20
-34.726019947190615
30
0
10
-40.978381435189142
20
-34.690363731927491
30
0
10
-41.138414541144769
20
-34.625273467501657
30
0
10
-41.262052457302971
20
-34.505180189586618
30
0
10
-41.317961962889981
20
-34.450873582024904
30
0
0
SPLINE
5
161
100
AcDbEntity
8
0
100
AcDbSpline
70
0
71
3
72
9
73
5
74
0
42
0.000000001
43
0.0000000001
44
0.0000000001
40
0
40
0
40
0
40
0
40
0.022064418762258026
40
0.046370813233845412
40
0.046370813233845412
40
0.046370813233845412
40
0.046370813233845412
10
-41.317961962889981
20
-34.450873582024904
30
0
10
-41.360501341024573
20
-34.390118542105881
30
0
10
-41.449902543014872
20
-34.262435114798976
30
0
10
-41.488916607479837
20
-34.111361392185266
30
0
10
-41.509366782378507
20
-34.032172410149904
30
0
0
SPLINE
5
162
100
AcDbEntity
8
0
100
AcDbSpline
70
0
71
3
72
9
73
5
74
0
42
0.000000001
43
0.0000000001
44
0.0000000001
40
0
40
0
40
0
40
0
40
0.022166278742978125
40
0.056867210333520782
40
0.056867210333520782
40
0.056867210333520782
40
0.056867210333520782
10
-41.509366782378507
20
-34.032172410149904
30
0
10
-41.518237048836262
20
-33.958760820631333
30
0
10
-41.540993566257015
20
-33.770424638880804
30
0
10
-41.5404572171471
20
-33.580613912144258
30
0
10
-41.540129931639981
20
-33.46478953804526
30
0
0
LINE
5
163
100
AcDbEntity
8
0
100
AcDbLine
10
-41.540129931639981
20
-33.46478953804526
30
0
11
-41.540129931639981
21
-32.64447703804526
31
0
0
SPLINE
5
164
100
AcDbEntity
8
0
100
AcDbSpline
70
0
71
3
72
9
73
5
74
0
42
0.000000001
43
0.0000000001
44
0.0000000001
40
0
40
0
40
0
40
0
40
0.070032515349395683
40
0.10864012007066937
40
0.10864012007066937
40
0.10864012007066937
40
0.10864012007066937
10
-41.540129931639981
20
-32.64447703804526
30
0
10
-41.538715224551403
20
-32.410846023128094
30
0
10
-41.53652061612987
20
-32.048418636560555
30
0
10
-41.568183523157884
20
-31.687523731342445
30
0
10
-41.579435618590665
20
-31.55927195992026
30
0
0
SPLINE
5
165
100
AcDbEntity
8
0
100
AcDbSpline
70
0
71
3
72
9
73
5
74
0
42
0.000000001
43
0.0000000001
44
0.0000000001
40
0
40
0
40
0
40
0
40
0.023016222498007766
40
0.046438165163931414
40
0.046438165163931414
40
0.046438165163931414
40
0.046438165163931414
10
-41.579435618590665
20
-31.55927195992026
30
0
10
-41.595908437043505
20
-31.483991991215731
30
0
10
-41.629144449777343
20
-31.332105050579013
30
0
10
-41.699479099439202
20
-31.193426182112649
30
0
10
-41.734953673552823
20
-31.12348094429526
30
0
0
LINE
5
166
100
AcDbEntity
8
0
100
AcDbLine
10
-50.358489306639981
20
-33.24603929962668
30
0
11
-50.358489306639981
21
-31.12348094429526
31
0
0
LINE
5
167
100
AcDbEntity
8
0
100
AcDbLine
10
-50.358489306639981
20
-31.12348094429526
30
0
11
-49.695404322814298
21
-31.12348094429526
31
0
0
LINE
5
168
100
AcDbEntity
8
0
100
AcDbLine
10
-49.695404322814298
20
-31.12348094429526
30
0
11
-49.695404322814298
21
-33.24603929962668
31
0
0
LINE
5
169
100
AcDbEntity
8
0
100
AcDbLine
10
-49.695404322814298
20
-33.24603929962668
30
0
11
-47.764251979064298
21
-36.13422289337668
31
0
0
LINE
5
170
100
AcDbEntity
8
0
100
AcDbLine
10
-47.764251979064298
20
-36.13422289337668
30
0
11
-48.570893557738614
21
-36.13422289337668
31
0
0
LINE
5
171
100
AcDbEntity
8
0
100
AcDbLine
10
-48.570893557738614
20
-36.13422289337668
30
0
11
-49.558685572814298
21
-34.623480884690615
31
0
0
SPLINE
5
172
100
AcDbEntity
8
0
100
AcDbSpline
70
0
71
3
72
9
73
5
74
0
42
0.000000001
43
0.0000000001
44
0.0000000001
40
0
40
0
40
0
40
0
40
0.049934641628422635
40
0.098901118638649449
40
0.098901118638649449
40
0.098901118638649449
40
0.098901118638649449
10
-49.558685572814298
20
-34.623480884690615
30
0
10
-49.647872706573722
20
-34.482910025935183
30
0
10
-49.824517757170447
20
-34.204493785715393
30
0
10
-49.98734521213855
20
-33.917778859525811
30
0
10
-50.067961962889981
20
-33.775824753899904
30
0
0
SPLINE
5
173
100
AcDbEntity
8
0
100
AcDbSpline
70
0
71
3
72
9
73
5
74
0
42
0.000000001
43
0.0000000001
44
0.0000000001
40
0
40
0
40
0
40
0
40
0.048667589118051559
40
0.1040654792874347
40
0.1040654792874347
40
0.1040654792874347
40
0.1040654792874347
10
-50.067961962889981
20
-33.775824753899904
30
0
10
-50.150220029413134
20
-33.915670146053458
30
0
10
-50.326111732148291
20
-34.214700322487666
30
0
10
-50.514533246266907
20
-34.506005903247654
30
0
10
-50.614836962889981
20
-34.66107860054526
30
0
0
LINE
5
174
100
AcDbEntity
8
0
100
AcDbLine
10
-50.614836962889981
20
-34.66107860054526
30
0
11
-51.585539134215665
21
-36.13422289337668
31
0
0
LINE
5
175
100
AcDbEntity
8
0
100
AcDbLine
10
-51.585539134215665
20
-36.13422289337668
30
0
11
-52.358001025389981
21
-36.13422289337668
31
0
0
LINE
5
176
100
AcDbEntity
8
0
100
AcDbLine
10
-52.358001025389981
20
-36.13422289337668
30
0
11
-50.358489306639981
21
-33.24603929962668
31
0
0
LINE
5
177
100
AcDbEntity
8
0
100
AcDbLine
10
-55.488856585692716
20
-31.12348094429526
30
0
11
-54.846280368041349
21
-31.12348094429526
31
0
0
SPLINE
5
178
100
AcDbEntity
8
0
100
AcDbSpline
70
0
71
3
72
9
73
5
74
0
42
0.000000001
43
0.0000000001
44
0.0000000001
40
0
40
0
40
0
40
0
40
0.022202383832342305
40
0.046621358395099247
40
0.046621358395099247
40
0.046621358395099247
40
0.046621358395099247
10
-54.846280368041349
20
-31.12348094429526
30
0
10
-54.817043913892533
20
-31.191847315439048
30
0
10
-54.755652163467616
20
-31.33540546285851
30
0
10
-54.734376264956211
20
-31.49017212610832
30
0
10
-54.723232539367032
20
-31.57123461212668
30
0
0
SPLINE
5
179
100
AcDbEntity
8
0
100
AcDbSpline
70
0
71
3
72
9
73
5
74
0
42
0.000000001
43
0.0000000001
44
0.0000000001
40
0
40
0
40
0
40
0
40
0.04170029122896407
40
0.077812697068571884
40
0.077812697068571884
40
0.077812697068571884
40
0.077812697068571884
10
-54.723232539367032
20
-31.57123461212668
30
0
10
-54.614749797248656
20
-31.483245406780441
30
0
10
-54.412321121072857
20
-31.319057647435603
30
0
10
-54.175281992395497
20
-31.211155227713757
30
0
10
-54.065273554992032
20
-31.16107836212668
30
0
0
SPLINE
5
180
100
AcDbEntity
8
0
100
AcDbSpline
70
0
71
3
72
9
73
5
74
0
42
0.000000001
43
0.0000000001
44
0.0000000001
40
0
40
0
40
0
40
0
40
0.033975752042919395
40
0.069180112822121248
40
0.069180112822121248
40
0.069180112822121248
40
0.069180112822121248
10
-54.065273554992032
20
-31.16107836212668
30
0
10
-53.956927963041899
20
-31.126189687205308
30
0
10
-53.736318857306095
20
-31.055150716111282
30
0
10
-53.50468141549419
20
-31.04607029738488
30
0
10
-53.386805804442716
20
-31.04144945587668
30
0
0
SPLINE
5
181
100
AcDbEntity
8
0
100
AcDbSpline
70
0
71
3
72
9
73
5
74
0
42
0.000000001
43
0.0000000001
44
0.0000000001
40
0
40
0
40
0
40
0
40
0.053395346532033233
40
0.098175908210159979
40
0.098175908210159979
40
0.098175908210159979
40
0.098175908210159979
10
-53.386805804442716
20
-31.04144945587668
30
0
10
-53.204756768669398
20
-31.048735450256444
30
0
10
-52.870030419153011
20
-31.062131919460345
30
0
10
-52.593503993193309
20
-31.248622912936042
30
0
10
-52.467373164367032
20
-31.333686260838839
30
0
0
SPLINE
5
182
100
AcDbEntity
8
0
100
AcDbSpline
70
0
71
3
72
9
73
5
74
0
42
0.000000001
43
0.0000000001
44
0.0000000001
40
0
40
0
40
0
40
0
40
0.041089692654400836
40
0.083261832005606398
40
0.083261832005606398
40
0.083261832005606398
40
0.083261832005606398
10
-52.467373164367032
20
-31.333686260838839
30
0
10
-52.373669190664572
20
-31.438825019125897
30
0
10
-52.183792751765566
20
-31.651872259547098
30
0
10
-52.158762755231308
20
-31.936399217051878
30
0
10
-52.146085055541349
20
-32.08051219429526
30
0
0
SPLINE
5
183
100
AcDbEntity
8
0
100
AcDbSpline
70
0
71
3
72
9
73
5
74
0
42
0.000000001
43
0.0000000001
44
0.0000000001
40
0
40
0
40
0
40
0
40
0.025686385515678551
40
0.050606723597918422
40
0.050606723597918422
40
0.050606723597918422
40
0.050606723597918422
10
-52.146085055541349
20
-32.08051219429526
30
0
10
-52.150828752511778
20
-32.166882711906993
30
0
10
-52.160174674742372
20
-32.337047911254267
30
0
10
-52.232034839601241
20
-32.491510511685078
30
0
10
-52.267421038817716
20
-32.56757274117026
30
0
0
SPLINE
5
184
100
AcDbEntity
8
0
100
AcDbSpline
70
0
71
3
72
9
73
5
74
0
42
0.000000001
43
0.0000000001
44
0.0000000001
40
0
40
0
40
0
40
0
40
0.024312184083966099
40
0.047900978711903311
40
0.047900978711903311
40
0.047900978711903311
40
0.047900978711903311
10
-52.267421038817716
20
-32.56757274117026
30
0
10
-52.310491987440216
20
-32.637080139005349
30
0
10
-52.395352343298924
20
-32.77402679803523
30
0
10
-52.522621439605281
20
-32.872727495280891
30
0
10
-52.585294993590665
20
-32.921332566399904
30
0
0
SPLINE
5
185
100
AcDbEntity
8
0
100
AcDbSpline
70
0
71
3
72
9
73
5
74
0
42
0.000000001
43
0.0000000001
44
0.0000000001
40
0
40
0
40
0
40
0
40
0.023948386511333682
40
0.048802593505660866
40
0.048802593505660866
40
0.048802593505660866
40
0.048802593505660866
10
-52.585294993590665
20
-32.921332566399904
30
0
10
-52.653605306249254
20
-32.963262292450381
30
0
10
-52.79280969145259
20
-33.048707688751989
30
0
10
-52.948585507379661
20
-33.097926489723577
30
0
10
-53.027919085692716
20
-33.12299266304526
30
0
0
SPLINE
5
186
100
AcDbEntity
8
0
100
AcDbSpline
70
0
71
3
72
9
73
5
74
0
42
0.000000001
43
0.0000000001
44
0.0000000001
40
0
40
0
40
0
40
0
40
0.023210652783863334
40
0.055487581025542465
40
0.055487581025542465
40
0.055487581025542465
40
0.055487581025542465
10
-53.027919085692716
20
-33.12299266304526
30
0
10
-53.103510225143246
20
-33.139664364979055
30
0
10
-53.284219036486576
20
-33.179519875313012
30
0
10
-53.467930045884856
20
-33.202127287411855
30
0
10
-53.574794085692716
20
-33.215277938504549
30
0
0
SPLINE
5
187
100
AcDbEntity
8
0
100
AcDbSpline
70
0
71
3
72
9
73
5
74
0
42
0.000000001
43
0.0000000001
44
0.0000000001
40
0
40
0
40
0
40
0
40
0.065414711988041732
40
0.111879193757453
40
0.111879193757453
40
0.111879193757453
40
0.111879193757453
10
-53.574794085692716
20
-33.215277938504549
30
0
10
-53.791667017303844
20
-33.241532380613378
30
0
10
-54.162586157648064
20
-33.286435518247387
30
0
10
-54.522491099601432
20
-33.385888401929968
30
0
10
-54.671963008117032
20
-33.427192120213839
30
0
0
SPLINE
5
188
100
AcDbEntity
8
0
100
AcDbSpline
70
0
71
3
72
9
73
5
74
0
42
0.000000001
43
0.0000000001
44
0.0000000001
40
0
40
0
40
0
40
0
40
0.010342531614677282
40
0.01606825357410837
40
0.01606825357410837
40
0.01606825357410837
40
0.01606825357410837
10
-54.671963008117032
20
-33.427192120213839
30
0
10
-54.672927946344529
20
-33.461654437763777
30
0
10
-54.674427083374084
20
-33.515195415715247
30
0
10
-54.675131072712091
20
-33.568752185150039
30
0
10
-54.675381930541349
20
-33.587836472649904
30
0
0
SPLINE
5
189
100
AcDbEntity
8
0
100
AcDbSpline
70
0
71
3
72
9
73
5
74
0
42
0.000000001
43
0.0000000001
44
0.0000000001
40
0
40
0
40
0
40
0
40
0.03233842433154728
40
0.057020484496007509
40
0.057020484496007509
40
0.057020484496007509
40
0.057020484496007509
10
-54.675381930541349
20
-33.587836472649904
30
0
10
-54.672927987914655
20
-33.699009612519156
30
0
10
-54.668601091957562
20
-33.895034818734999
30
0
10
-54.55167678247232
20
-34.050378912493251
30
0
10
-54.501064570617032
20
-34.117621628899904
30
0
0
SPLINE
5
190
100
AcDbEntity
8
0
100
AcDbSpline
70
0
71
3
72
9
73
5
74
0
42
0.000000001
43
0.0000000001
44
0.0000000001
40
0
40
0
40
0
40
0
40
0.033219814668911302
40
0.074310838229382711
40
0.074310838229382711
40
0.074310838229382711
40
0.074310838229382711
10
-54.501064570617032
20
-34.117621628899904
30
0
10
-54.406080660185772
20
-34.178256775019058
30
0
10
-54.193607048493497
20
-34.313894152264652
30
0
10
-53.94039658426874
20
-34.32176532675583
30
0
10
-53.800380976867032
20
-34.326117782254549
30
0
0
SPLINE
5
191
100
AcDbEntity
8
0
100
AcDbSpline
70
0
71
3
72
9
73
5
74
0
42
0.000000001
43
0.0000000001
44
0.0000000001
40
0
40
0
40
0
40
0
40
0.037916596814971927
40
0.066640416071498468
40
0.066640416071498468
40
0.066640416071498468
40
0.066640416071498468
10
-53.800380976867032
20
-34.326117782254549
30
0
10
-53.67185360089038
20
-34.324116667737627
30
0
10
-53.445959967728662
20
-34.320599603570045
30
0
10
-53.245790348588812
20
-34.218168587999827
30
0
10
-53.159511836242032
20
-34.17401805367026
30
0
0
SPLINE
5
192
100
AcDbEntity
8
0
100
AcDbSpline
70
0
71
3
72
9
73
5
74
0
42
0.000000001
43
0.0000000001
44
0.0000000001
40
0
40
0
40
0
40
0
40
0.027698065105806659
40
0.062808099312096244
40
0.062808099312096244
40
0.062808099312096244
40
0.062808099312096244
10
-53.159511836242032
20
-34.17401805367026
30
0
10
-53.093643827084726
20
-34.107326985421757
30
0
10
-52.944281608285735
20
-33.956098398811797
30
0
10
-52.886119433724552
20
-33.750576000027749
30
0
10
-52.853606494139981
20
-33.63568797554526
30
0
0
LINE
5
193
100
AcDbEntity
8
0
100
AcDbLine
10
-52.853606494139981
20
-33.63568797554526
30
0
11
-52.252043040465665
21
-33.717719165940615
31
0
0
SPLINE
5
194
100
AcDbEntity
8
0
100
AcDbSpline
70
0
71
3
72
9
73
5
74
0
42
0.000000001
43
0.0000000001
44
0.0000000001
40
0
40
0
40
0
40
0
40
0.036553955947463551
40
0.068421327228765719
40
0.068421327228765719
40
0.068421327228765719
40
0.068421327228765719
10
-52.252043040465665
20
-33.717719165940615
30
0
10
-52.28138355054125
20
-33.837094474767888
30
0
10
-52.336302822311069
20
-34.060539977630697
30
0
10
-52.463035580210075
20
-34.252222118670801
30
0
10
-52.522061618041349
20
-34.341498462815615
30
0
0
SPLINE
5
195
100
AcDbEntity
8
0
100
AcDbSpline
70
0
71
3
72
9
73
5
74
0
42
0.000000001
43
0.0000000001
44
0.0000000001
40
0
40
0
40
0
40
0
40
0.031148289978175411
40
0.066152373489854421
40
0.066152373489854421
40
0.066152373489854421
40
0.066152373489854421
10
-52.522061618041349
20
-34.341498462815615
30
0
10
-52.59482085921973
20
-34.417202940696065
30
0
10
-52.749346083578537
20
-34.577983224272181
30
0
10
-52.956109973758501
20
-34.662499839669906
30
0
10
-53.065517695617032
20
-34.707221238274904
30
0
0
SPLINE
5
196
100
AcDbEntity
8
0
100
AcDbSpline
70
0
71
3
72
9
73
5
74
0
42
0.000000001
43
0.0000000001
44
0.0000000001
40
0
40
0
40
0
40
0
40
0.039552767403615109
40
0.083675623900309373
40
0.083675623900309373
40
0.083675623900309373
40
0.083675623900309373
10
-53.065517695617032
20
-34.707221238274904
30
0
10
-53.192554959378164
20
-34.744575059798649
30
0
10
-53.461307893789261
20
-34.823598716706535
30
0
10
-53.741500966670237
20
-34.831322336872226
30
0
10
-53.889249118041349
20
-34.835395066399904
30
0
0
SPLINE
5
197
100
AcDbEntity
8
0
100
AcDbSpline
70
0
71
3
72
9
73
5
74
0
42
0.000000001
43
0.0000000001
44
0.0000000001
40
0
40
0
40
0
40
0
40
0.042214829619303652
40
0.076618140803181328
40
0.076618140803181328
40
0.076618140803181328
40
0.076618140803181328
10
-53.889249118041349
20
-34.835395066399904
30
0
10
-54.030706413499693
20
-34.833012721883989
30
0
10
-54.287445457072863
20
-34.828688866755172
30
0
10
-54.533939609575086
20
-34.757834976858064
30
0
10
-54.644621165465665
20
-34.726019947190615
30
0
0
SPLINE
5
198
100
AcDbEntity
8
0
100
AcDbSpline
70
0
71
3
72
9
73
5
74
0
42
0.000000001
43
0.0000000001
44
0.0000000001
40
0
40
0
40
0
40
0
40
0.028069152682829376
40
0.051240114994032686
40
0.051240114994032686
40
0.051240114994032686
40
0.051240114994032686
10
-54.644621165465665
20
-34.726019947190615
30
0
10
-54.732286731514826
20
-34.690363731927491
30
0
10
-54.892319837470438
20
-34.625273467501657
30
0
10
-55.015957753628655
20
-34.505180189586618
30
0
10
-55.071867259215665
20
-34.450873582024904
30
0
0
SPLINE
5
199
100
AcDbEntity
8
0
100
AcDbSpline
70
0
71
3
72
9
73
5
74
0
42
0.000000001
43
0.0000000001
44
0.0000000001
40
0
40
0
40
0
40
0
40
0.022064418762258026
40
0.046370886992637209
40
0.046370886992637209
40
0.046370886992637209
40
0.046370886992637209
10
-55.071867259215665
20
-34.450873582024904
30
0
10
-55.114406476092881
20
-34.390118488804518
30
0
10
-55.20380748138664
20
-34.262434746381693
30
0
10
-55.24282332557582
20
-34.11136134050264
30
0
10
-55.263274462889981
20
-34.032172410149904
30
0
0
SPLINE
5
200
100
AcDbEntity
8
0
100
AcDbSpline
70
0
71
3
72
9
73
5
74
0
42
0.000000001
43
0.0000000001
44
0.0000000001
40
0
40
0
40
0
40
0
40
0.02216630356003851
40
0.056867224584867496
40
0.056867224584867496
40
0.056867224584867496
40
0.056867224584867496
10
-55.263274462889981
20
-34.032172410149904
30
0
10
-55.272145877415959
20
-33.958760841198227
30
0
10
-55.294905320408681
20
-33.770424875871619
30
0
10
-55.294364960635782
20
-33.580613962026888
30
0
10
-55.294035227965665
20
-33.46478953804526
30
0
0
LINE
5
201
100
AcDbEntity
8
0
100
AcDbLine
10
-55.294035227965672
20
-33.46478953804526
30
0
11
-55.294035227965665
21
-32.64447703804526
31
0
0
SPLINE
5
202
100
AcDbEntity
8
0
100
AcDbSpline
70
0
71
3
72
9
73
5
74
0
42
0.000000001
43
0.0000000001
44
0.0000000001
40
0
40
0
40
0
40
0
40
0.070032518694700993
40
0.10864010521125508
40
0.10864010521125508
40
0.10864010521125508
40
0.10864010521125508
10
-55.294035227965665
20
-32.64447703804526
30
0
10
-55.292622032558569
20
-32.41084606204781
30
0
10
-55.290429769584541
20
-32.048418802739619
30
0
10
-55.322089833582019
20
-31.687523743237559
30
0
10
-55.333340914916349
20
-31.55927195992026
30
0
0
SPLINE
5
203
100
AcDbEntity
8
0
100
AcDbSpline
70
0
71
3
72
9
73
5
74
0
42
0.000000001
43
0.0000000001
44
0.0000000001
40
0
40
0
40
0
40
0
40
0.023016222498007766
40
0.046438066439845188
40
0.046438066439845188
40
0.046438066439845188
40
0.046438066439845188
10
-55.333340914916349
20
-31.55927195992026
30
0
10
-55.349813887262826
20
-31.483992061862274
30
0
10
-55.383050139838758
20
-31.332105586664021
30
0
10
-55.453382992192637
20
-31.193426264712731
30
0
10
-55.488856585692716
20
-31.12348094429526
30
0
0
LINE
5
204
100
AcDbEntity
8
0
100
AcDbLine
10
-43.108979018401456
20
-33.10590281929526
30
0
11
-43.108979018401456
21
-31.12348094429526
31
0
0
LINE
5
205
100
AcDbEntity
8
0
100
AcDbLine
10
-43.108979018401456
20
-31.12348094429526
30
0
11
-42.493744643401456
21
-31.12348094429526
31
0
0
LINE
5
206
100
AcDbEntity
8
0
100
AcDbLine
10
-42.493744643401456
20
-31.12348094429526
30
0
11
-42.493744643401456
21
-34.753363577981325
31
0
0
LINE
5
207
100
AcDbEntity
8
0
100
AcDbLine
10
-42.493744643401456
20
-34.753363577981325
30
0
11
-43.047455104064298
21
-34.753363577981325
31
0
0
LINE
5
208
100
AcDbEntity
8
0
100
AcDbLine
10
-43.047455104064298
20
-34.753363577981325
30
0
11
-43.047455104064298
21
-34.237250535149904
31
0
0
SPLINE
5
209
100
AcDbEntity
8
0
100
AcDbSpline
70
0
71
3
72
9
73
5
74
0
42
0.000000001
43
0.0000000001
44
0.0000000001
40
0
40
0
40
0
40
0
40
0.066343471114660518
40
0.13465075565028134
40
0.13465075565028134
40
0.13465075565028134
40
0.13465075565028134
10
-43.047455104064298
20
-34.237250535149904
30
0
10
-43.197356821639119
20
-34.411698906686624
30
0
10
-43.501597453092359
20
-34.765759444290758
30
0
10
-43.966757123498411
20
-34.811958595251149
30
0
10
-44.202729018401456
20
-34.835395066399904
30
0
0
SPLINE
5
210
100
AcDbEntity
8
0
100
AcDbSpline
70
0
71
3
72
9
73
5
74
0
42
0.000000001
43
0.0000000001
44
0.0000000001
40
0
40
0
40
0
40
0
40
0.031625880030994313
40
0.061790374351697902
40
0.061790374351697902
40
0.061790374351697902
40
0.061790374351697902
10
-44.202729018401456
20
-34.835395066399904
30
0
10
-44.308757750848081
20
-34.830963360185478
30
0
10
-44.515915782924729
20
-34.822304730425998
30
0
10
-44.710841671724701
20
-34.751862927664853
30
0
10
-44.80599954910214
20
-34.717475025315615
30
0
0
SPLINE
5
211
100
AcDbEntity
8
0
100
AcDbSpline
70
0
71
3
72
9
73
5
74
0
42
0.000000001
43
0.0000000001
44
0.0000000001
40
0
40
0
40
0
40
0
40
0.027646894188380948
40
0.051997114472650346
40
0.051997114472650346
40
0.051997114472650346
40
0.051997114472650346
10
-44.80599954910214
20
-34.717475025315615
30
0
10
-44.890257886905154
20
-34.677376609178133
30
0
10
-45.048727420812511
20
-34.601961196514942
30
0
10
-45.163920434821875
20
-34.469963446723213
30
0
10
-45.217865260314298
20
-34.408148972649904
30
0
0
SPLINE
5
212
100
AcDbEntity
8
0
100
AcDbSpline
70
0
71
3
72
9
73
5
74
0
42
0.000000001
43
0.0000000001
44
0.0000000001
40
0
40
0
40
0
40
0
40
0.023944190980933186
40
0.049595117504124223
40
0.049595117504124223
40
0.049595117504124223
40
0.049595117504124223
10
-45.217865260314298
20
-34.408148972649904
30
0
10
-45.260304637371306
20
-34.339940263946794
30
0
10
-45.348208458954616
20
-34.19866094798958
30
0
10
-45.388456109765784
20
-34.03711275574026
30
0
10
-45.409272463988614
20
-33.95355895008597
30
0
0
SPLINE
5
213
100
AcDbEntity
8
0
100
AcDbSpline
70
0
71
3
72
9
73
5
74
0
42
0.000000001
43
0.0000000001
44
0.0000000001
40
0
40
0
40
0
40
0
40
0.023637947596523774
40
0.059963917023525687
40
0.059963917023525687
40
0.059963917023525687
40
0.059963917023525687
10
-45.409272463988614
20
-33.95355895008597
30
0
10
-45.419136285784923
20
-33.875317796957653
30
0
10
-45.444158483220356
20
-33.676838381820055
30
0
10
-45.44371861960731
20
-33.476673644315113
30
0
10
-45.443452151488614
20
-33.35541441883597
30
0
0
LINE
5
214
100
AcDbEntity
8
0
100
AcDbLine
10
-45.443452151488614
20
-33.35541441883597
30
0
11
-45.443452151488614
21
-31.12348094429526
31
0
0
LINE
5
215
100
AcDbEntity
8
0
100
AcDbLine
10
-45.443452151488614
20
-31.12348094429526
30
0
11
-44.828217776488614
21
-31.12348094429526
31
0
0
LINE
5
216
100
AcDbEntity
8
0
100
AcDbLine
10
-44.828217776488614
20
-31.12348094429526
30
0
11
-44.828217776488614
21
-33.33148851837668
31
0
0
SPLINE
5
217
100
AcDbEntity
8
0
100
AcDbSpline
70
0
71
3
72
9
73
5
74
0
42
0.000000001
43
0.0000000001
44
0.0000000001
40
0
40
0
40
0
40
0
40
0.032904203512585176
40
0.056886603119688767
40
0.056886603119688767
40
0.056886603119688767
40
0.056886603119688767
10
-44.828217776488614
20
-33.33148851837668
30
0
10
-44.827627394538624
20
-33.441768321158712
30
0
10
-44.82660670963844
20
-33.632426130899638
30
0
10
-44.777248175922324
20
-33.816248283724228
30
0
10
-44.756439479064298
20
-33.89374449696097
30
0
0
SPLINE
5
218
100
AcDbEntity
8
0
100
AcDbSpline
70
0
71
3
72
9
73
5
74
0
42
0.000000001
43
0.0000000001
44
0.0000000001
40
0
40
0
40
0
40
0
40
0.019483165664566836
40
0.039712555402829919
40
0.039712555402829919
40
0.039712555402829919
40
0.039712555402829919
10
-44.756439479064298
20
-33.89374449696097
30
0
10
-44.727331104180095
20
-33.953037451258659
30
0
10
-44.667999475522976
20
-34.073894337304999
30
0
10
-44.557890354570695
20
-34.151550309080413
30
0
10
-44.501801284026456
20
-34.19110789742026
30
0
0
SPLINE
5
219
100
AcDbEntity
8
0
100
AcDbSpline
70
0
71
3
72
9
73
5
74
0
42
0.000000001
43
0.0000000001
44
0.0000000001
40
0
40
0
40
0
40
0
40
0.021543119054773182
40
0.04473857678229913
40
0.04473857678229913
40
0.04473857678229913
40
0.04473857678229913
10
-44.501801284026456
20
-34.19110789742026
30
0
10
-44.436798999557695
20
-34.22349521550057
30
0
10
-44.301808811398963
20
-34.290753931057253
30
0
10
-44.151023089437167
20
-34.298286497627409
30
0
10
-44.072845729064298
20
-34.30219188179526
30
0
0
SPLINE
5
220
100
AcDbEntity
8
0
100
AcDbSpline
70
0
71
3
72
9
73
5
74
0
42
0.000000001
43
0.0000000001
44
0.0000000001
40
0
40
0
40
0
40
0
40
0.037142438476209634
40
0.073551314053223571
40
0.073551314053223571
40
0.073551314053223571
40
0.073551314053223571
10
-44.072845729064298
20
-34.30219188179526
30
0
10
-43.946794900663619
20
-34.292216533007256
30
0
10
-43.697182746838372
20
-34.272462848499799
30
0
10
-43.494641142220722
20
-34.125452202849893
30
0
10
-43.394380362700772
20
-34.052679984231325
30
0
0
SPLINE
5
221
100
AcDbEntity
8
0
100
AcDbSpline
70
0
71
3
72
9
73
5
74
0
42
0.000000001
43
0.0000000001
44
0.0000000001
40
0
40
0
40
0
40
0
40
0.042007672976198812
40
0.10097364375977277
40
0.10097364375977277
40
0.10097364375977277
40
0.10097364375977277
10
-43.394380362700772
20
-34.052679984231325
30
0
10
-43.311712145697982
20
-33.93604767261062
30
0
10
-43.113002945628132
20
-33.655699139828521
30
0
10
-43.110462545643657
20
-33.308599780057875
30
0
10
-43.108979018401456
20
-33.10590281929526
30
0
0
LINE
5
222
100
AcDbEntity
8
0
100
AcDbLine
10
-37.636812480162931
20
-34.753363876004549
30
0
11
-37.636812480162931
21
-31.12348094429526
31
0
0
LINE
5
223
100
AcDbEntity
8
0
100
AcDbLine
10
-37.636812480162931
20
-31.12348094429526
30
0
11
-37.086518557738614
21
-31.12348094429526
31
0
0
LINE
5
224
100
AcDbEntity
8
0
100
AcDbLine
10
-37.086518557738614
20
-31.12348094429526
30
0
11
-37.086518557738614
21
-31.65668383087668
31
0
0
SPLINE
5
225
100
AcDbEntity
8
0
100
AcDbSpline
70
0
71
3
72
9
73
5
74
0
42
0.000000001
43
0.0000000001
44
0.0000000001
40
0
40
0
40
0
40
0
40
0.068028795093756741
40
0.13501619489247557
40
0.13501619489247557
40
0.13501619489247557
40
0.13501619489247557
10
-37.086518557738614
20
-31.65668383087668
30
0
10
-36.933516430610453
20
-31.477243545344024
30
0
10
-36.62985435653097
20
-31.121109873864931
30
0
10
-36.165199183296082
20
-31.067866036611637
30
0
10
-35.934663565825772
20
-31.04144945587668
30
0
0
SPLINE
5
226
100
AcDbEntity
8
0
100
AcDbSpline
70
0
71
3
72
9
73
5
74
0
42
0.000000001
43
0.0000000001
44
0.0000000001
40
0
40
0
40
0
40
0
40
0.03121289165054723
40
0.061573893059967189
40
0.061573893059967189
40
0.061573893059967189
40
0.061573893059967189
10
-35.934663565825772
20
-31.04144945587668
30
0
10
-35.830007772173637
20
-31.046286796701672
30
0
10
-35.62355254468018
20
-31.055829453306107
30
0
10
-35.430165377160414
20
-31.128609922113402
30
0
10
-35.334809573363614
20
-31.164496688504549
30
0
0
SPLINE
5
227
100
AcDbEntity
8
0
100
AcDbSpline
70
0
71
3
72
9
73
5
74
0
42
0.000000001
43
0.0000000001
44
0.0000000001
40
0
40
0
40
0
40
0
40
0.027959381837677291
40
0.052097870273352526
40
0.052097870273352526
40
0.052097870273352526
40
0.052097870273352526
10
-35.334809573363614
20
-31.164496688504549
30
0
10
-35.249916746311371
20
-31.205540197814152
30
0
10
-35.091732437495715
20
-31.282018262886861
30
0
10
-34.975218680270245
20
-31.413092267425764
30
0
10
-34.921234400939298
20
-31.47382274117026
30
0
0
SPLINE
5
228
100
AcDbEntity
8
0
100
AcDbSpline
70
0
71
3
72
9
73
5
74
0
42
0.000000001
43
0.0000000001
44
0.0000000001
40
0
40
0
40
0
40
0
40
0.023695162276069895
40
0.049701549856796354
40
0.049701549856796354
40
0.049701549856796354
40
0.049701549856796354
10
-34.921234400939298
20
-31.47382274117026
30
0
10
-34.879206346162803
20
-31.54132621314638
30
0
10
-34.791050821608025
20
-31.682917443408446
30
0
10
-34.751981897682484
20
-31.845204473720628
30
0
10
-34.731539042662931
20
-31.93012133087668
30
0
0
SPLINE
5
229
100
AcDbEntity
8
0
100
AcDbSpline
70
0
71
3
72
9
73
5
74
0
42
0.000000001
43
0.0000000001
44
0.0000000001
40
0
40
0
40
0
40
0
40
0.023582280658006657
40
0.057604125244620677
40
0.057604125244620677
40
0.057604125244620677
40
0.057604125244620677
10
-34.731539042662931
20
-31.93012133087668
30
0
10
-34.720659365542339
20
-32.00805555257547
30
0
10
-34.694083722051204
20
-32.19842444575778
30
0
10
-34.693993637814998
20
-32.390750159307359
30
0
10
-34.693940432738614
20
-32.504340557713839
30
0
0
LINE
5
230
100
AcDbEntity
8
0
100
AcDbLine
10
-34.693940432738614
20
-32.504340557713846
30
0
11
-34.693940432738614
21
-34.753363876004549
31
0
0
LINE
5
231
100
AcDbEntity
8
0
100
AcDbLine
10
-34.693940432738614
20
-34.753363876004549
30
0
11
-35.309174807738614
21
-34.753363876004549
31
0
0
LINE
5
232
100
AcDbEntity
8
0
100
AcDbLine
10
-35.309174807738614
20
-34.753363876004549
30
0
11
-35.309174807738614
21
-32.74018004383597
31
0
0
SPLINE
5
233
100
AcDbEntity
8
0
100
AcDbSpline
70
0
71
3
72
9
73
5
74
0
42
0.000000001
43
0.0000000001
44
0.0000000001
40
0
40
0
40
0
40
0
40
0.040342968330766678
40
0.065113402500611012
40
0.065113402500611012
40
0.065113402500611012
40
0.065113402500611012
10
-35.309174807738614
20
-32.74018004383597
30
0
10
-35.308535376701364
20
-32.605480432649571
30
0
10
-35.30750333735913
20
-32.388075755632606
30
0
10
-35.335951261254799
20
-32.172699424155809
30
0
10
-35.346773417662931
20
-32.09076598133597
30
0
0
SPLINE
5
234
100
AcDbEntity
8
0
100
AcDbSpline
70
0
71
3
72
9
73
5
74
0
42
0.000000001
43
0.0000000001
44
0.0000000001
40
0
40
0
40
0
40
0
40
0.023478819943129611
40
0.046115679705296092
40
0.046115679705296092
40
0.046115679705296092
40
0.046115679705296092
10
-35.346773417662931
20
-32.09076598133597
30
0
10
-35.370963614125102
20
-32.014657465645733
30
0
10
-35.418476536612687
20
-31.865169717074121
30
0
10
-35.535448514051481
20
-31.760863263143897
30
0
10
-35.592866690825772
20
-31.709662227292391
30
0
0
SPLINE
5
235
100
AcDbEntity
8
0
100
AcDbSpline
70
0
71
3
72
9
73
5
74
0
42
0.000000001
43
0.0000000001
44
0.0000000001
40
0
40
0
40
0
40
0
40
0.023444505348882861
40
0.049142415473218327
40
0.049142415473218327
40
0.049142415473218327
40
0.049142415473218327
10
-35.592866690825772
20
-31.709662227292391
30
0
10
-35.661177093650529
20
-31.669310770392038
30
0
10
-35.804363658980122
20
-31.584729414102458
30
0
10
-35.970717859260077
20
-31.575868320031482
30
0
10
-36.057709010314298
20
-31.57123461212668
30
0
0
SPLINE
5
236
100
AcDbEntity
8
0
100
AcDbSpline
70
0
71
3
72
9
73
5
74
0
42
0.000000001
43
0.0000000001
44
0.0000000001
40
0
40
0
40
0
40
0
40
0.027064478456009653
40
0.054346324058345913
40
0.054346324058345913
40
0.054346324058345913
40
0.054346324058345913
10
-36.057709010314298
20
-31.57123461212668
30
0
10
-36.14873076750375
20
-31.577238999343468
30
0
10
-36.331505319048091
20
-31.589295997743999
30
0
10
-36.495111761081674
20
-31.671709159986289
30
0
10
-36.577242167662931
20
-31.71308055367026
30
0
0
SPLINE
5
237
100
AcDbEntity
8
0
100
AcDbSpline
70
0
71
3
72
9
73
5
74
0
42
0.000000001
43
0.0000000001
44
0.0000000001
40
0
40
0
40
0
40
0
40
0.026643456369962765
40
0.052416799369663689
40
0.052416799369663689
40
0.052416799369663689
40
0.052416799369663689
10
-36.577242167662931
20
-31.71308055367026
30
0
10
-36.651932332715162
20
-31.76393818652263
30
0
10
-36.798873455596038
20
-31.863992560122753
30
0
10
-36.88057397165656
20
-32.021744343197767
30
0
10
-36.920746119689298
20
-32.09931090321097
30
0
0
SPLINE
5
238
100
AcDbEntity
8
0
100
AcDbSpline
70
0
71
3
72
9
73
5
74
0
42
0.000000001
43
0.0000000001
44
0.0000000001
40
0
40
0
40
0
40
0
40
0.030889968704130962
40
0.071940328268442308
40
0.071940328268442308
40
0.071940328268442308
40
0.071940328268442308
10
-36.920746119689298
20
-32.09931090321097
30
0
10
-36.950008583712318
20
-32.198513128160862
30
0
10
-37.018158580493612
20
-32.429547374139254
30
0
10
-37.020335766348047
20
-32.670848782508116
30
0
10
-37.021578105162931
20
-32.80853941883597
30
0
0
LINE
5
239
100
AcDbEntity
8
0
100
AcDbLine
10
-37.021578105162931
20
-32.80853941883597
30
0
11
-37.021578105162931
21
-34.753363876004549
31
0
0
LINE
5
240
100
AcDbEntity
8
0
100
AcDbLine
10
-37.021578105162931
20
-34.753363876004549
30
0
11
-37.636812480162931
21
-34.753363876004549
31
0
0
SPLINE
5
241
100
AcDbEntity
8
0
100
AcDbSpline
70
0
71
3
72
9
73
5
74
0
42
0.000000001
43
0.0000000001
44
0.0000000001
40
0
40
0
40
0
40
0
40
0.058934026349292165
40
0.11330250300192302
40
0.11330250300192302
40
0.11330250300192302
40
0.11330250300192302
10
-33.89413431472714
20
-33.632269947190615
30
0
10
-33.887643488037405
20
-33.434863720901411
30
0
10
-33.875164671366406
20
-33.055344096462932
30
0
10
-33.760951497647945
20
-32.693400660438527
30
0
10
-33.70614603347714
20
-32.519721238274904
30
0
0
SPLINE
5
242
100
AcDbEntity
8
0
100
AcDbSpline
70
0
71
3
72
9
73
5
74
0
42
0.000000001
43
0.0000000001
44
0.0000000001
40
0
40
0
40
0
40
0
40
0.051858380262054173
40
0.10364030942092024
40
0.10364030942092024
40
0.10364030942092024
40
0.10364030942092024
10
-33.70614603347714
20
-32.519721238274904
30
0
10
-33.635553881644029
20
-32.360474772701771
30
0
10
-33.494473646941351
20
-32.04221660723676
30
0
10
-33.257275993057348
20
-31.787410987447473
30
0
10
-33.138764651488614
20
-31.660102157254549
30
0
0
SPLINE
5
243
100
AcDbEntity
8
0
100
AcDbSpline
70
0
71
3
72
9
73
5
74
0
42
0.000000001
43
0.0000000001
44
0.0000000001
40
0
40
0
40
0
40
0
40
0.05219024434460949
40
0.097147507118750018
40
0.097147507118750018
40
0.097147507118750018
40
0.097147507118750018
10
-33.138764651488614
20
-31.660102157254549
30
0
10
-33.283934276253042
20
-31.563468483528059
30
0
10
-33.554154646598676
20
-31.383593477688482
30
0
10
-33.85200209818251
20
-31.254841168021908
30
0
10
-33.989837916564298
20
-31.19525804962668
30
0
0
LINE
5
244
100
AcDbEntity
8
0
100
AcDbLine
10
-33.989837916564291
20
-31.19525804962668
30
0
11
-33.795014174651456
21
-30.73383226837668
31
0
0
SPLINE
5
245
100
AcDbEntity
8
0
100
AcDbSpline
70
0
71
3
72
9
73
5
74
0
42
0.000000001
43
0.0000000001
44
0.0000000001
40
0
40
0
40
0
40
0
40
0.059483885664258787
40
0.12439802854839006
40
0.12439802854839006
40
0.12439802854839006
40
0.12439802854839006
10
-33.795014174651456
20
-30.73383226837668
30
0
10
-33.611565862994652
20
-30.811010075088163
30
0
10
-33.227922325660167
20
-30.972411215840555
30
0
10
-32.89308229739332
20
-31.219913488267057
30
0
10
-32.718354018401456
20
-31.34906664337668
30
0
0
SPLINE
5
246
100
AcDbEntity
8
0
100
AcDbSpline
70
0
71
3
72
9
73
5
74
0
42
0.000000001
43
0.0000000001
44
0.0000000001
40
0
40
0
40
0
40
0
40
0.063089478830129345
40
0.12798558829313467
40
0.12798558829313467
40
0.12798558829313467
40
0.12798558829313467
10
-32.718354018401456
20
-31.34906664337668
30
0
10
-32.526259617527032
20
-31.258353366108128
30
0
10
-32.136569999549252
20
-31.074329145707228
30
0
10
-31.706138818682675
20
-31.050244192458702
30
0
10
-31.487885268401456
20
-31.03803172554526
30
0
0
SPLINE
5
247
100
AcDbEntity
8
0
100
AcDbSpline
70
0
71
3
72
9
73
5
74
0
42
0.000000001
43
0.0000000001
44
0.0000000001
40
0
40
0
40
0
40
0
40
0.065372763485829641
40
0.12886843760307751
40
0.12886843760307751
40
0.12886843760307751
40
0.12886843760307751
10
-31.487885268401456
20
-31.03803172554526
30
0
10
-31.267815205077952
20
-31.050889204578805
30
0
10
-30.833994088890044
20
-31.076234977745116
30
0
10
-30.445443224653896
20
-31.270459002213087
30
0
10
-30.25399759597714
20
-31.366156487126684
30
0
0
SPLINE
5
248
100
AcDbEntity
8
0
100
AcDbSpline
70
0
71
3
72
9
73
5
74
0
42
0.000000001
43
0.0000000001
44
0.0000000001
40
0
40
0
40
0
40
0
40
0.062928278777734589
40
0.12699387018987301
40
0.12699387018987301
40
0.12699387018987301
40
0.12699387018987301
10
-30.25399759597714
20
-31.366156487126684
30
0
10
-30.079600877124612
20
-31.487513479199919
30
0
10
-29.727655540216176
20
-31.732420767263783
30
0
10
-29.510676156991806
20
-32.10237495946815
30
0
10
-29.401214869689298
20
-32.289008645673135
30
0
0
SPLINE
5
249
100
AcDbEntity
8
0
100
AcDbSpline
70
0
71
3
72
9
73
5
74
0
42
0.000000001
43
0.0000000001
44
0.0000000001
40
0
40
0
40
0
40
0
40
0.067092914268978288
40
0.13823881350608674
40
0.13823881350608674
40
0.13823881350608674
40
0.13823881350608674
10
-29.401214869689298
20
-32.289008645673135
30
0
10
-29.314006271897828
20
-32.496961029087771
30
0
10
-29.134320932282229
20
-32.925427895704338
30
0
10
-29.11307633493232
20
-33.389838602080303
30
0
10
-29.102142604064298
20
-33.62885191883597
30
0
0
SPLINE
5
250
100
AcDbEntity
8
0
100
AcDbSpline
70
0
71
3
72
9
73
5
74
0
42
0.000000001
43
0.0000000001
44
0.0000000001
40
0
40
0
40
0
40
0
40
0.071235391824300456
40
0.13925734341938117
40
0.13925734341938117
40
0.13925734341938117
40
0.13925734341938117
10
-29.102142604064298
20
-33.62885191883597
30
0
10
-29.113477103256045
20
-33.868074375379443
30
0
10
-29.13563480051873
20
-34.335727924147285
30
0
10
-29.315209079379116
20
-34.767866302142544
30
0
10
-29.402924330901456
20
-34.97894957508597
30
0
0
SPLINE
5
251
100
AcDbEntity
8
0
100
AcDbSpline
70
0
71
3
72
9
73
5
74
0
42
0.000000001
43
0.0000000001
44
0.0000000001
40
0
40
0
40
0
40
0
40
0.064796773297213811
40
0.12759187408011363
40
0.12759187408011363
40
0.12759187408011363
40
0.12759187408011363
10
-29.402924330901456
20
-34.97894957508597
30
0
10
-29.512300695281493
20
-35.168780154861544
30
0
10
-29.72767461903085
20
-35.54257715429209
30
0
10
-30.083838033718067
20
-35.785609399117192
30
0
10
-30.259125979613614
20
-35.905219165940615
30
0
0
SPLINE
5
252
100
AcDbEntity
8
0
100
AcDbSpline
70
0
71
3
72
9
73
5
74
0
42
0.000000001
43
0.0000000001
44
0.0000000001
40
0
40
0
40
0
40
0
40
0.063478565262490308
40
0.12937084844302382
40
0.12937084844302382
40
0.12937084844302382
40
0.12937084844302382
10
-30.259125979613614
20
-35.905219165940615
30
0
10
-30.451810382242162
20
-35.99792243145783
30
0
10
-30.84450584639945
20
-36.186853924534404
30
0
10
-31.279832063280768
20
-36.210861894738109
30
0
10
-31.50155618972714
20
-36.223089842458101
30
0
0
SPLINE
5
253
100
AcDbEntity
8
0
100
AcDbSpline
70
0
71
3
72
9
73
5
74
0
42
0.000000001
43
0.0000000001
44
0.0000000001
40
0
40
0
40
0
40
0
40
0.066480209262772511
40
0.13057707679426864
40
0.13057707679426864
40
0.13057707679426864
40
0.13057707679426864
10
-31.50155618972714
20
-36.223089842458101
30
0
10
-31.725380578267142
20
-36.210378180050228
30
0
10
-32.165005162709967
20
-36.185410573347077
30
0
10
-32.559088510478176
20
-35.989448945251688
30
0
10
-32.752533705901456
20
-35.893256513734194
30
0
0
SPLINE
5
254
100
AcDbEntity
8
0
100
AcDbSpline
70
0
71
3
72
9
73
5
74
0
42
0.000000001
43
0.0000000001
44
0.0000000001
40
0
40
0
40
0
40
0
40
0.063048555380188651
40
0.12680235638122472
40
0.12680235638122472
40
0.12680235638122472
40
0.12680235638122472
10
-32.752533705901456
20
-35.893256513734194
30
0
10
-32.927473721574117
20
-35.771801535783993
30
0
10
-33.279310588872647
20
-35.527533014396838
30
0
10
-33.49397057293632
20
-35.156801414979341
30
0
10
-33.601897509764981
20
-34.97040465321097
30
0
0
SPLINE
5
255
100
AcDbEntity
8
0
100
AcDbSpline
70
0
71
3
72
9
73
5
74
0
42
0.000000001
43
0.0000000001
44
0.0000000001
40
0
40
0
40
0
40
0
40
0.066802217042819842
40
0.137887873790183
40
0.137887873790183
40
0.137887873790183
40
0.137887873790183
10
-33.601897509764981
20
-34.97040465321097
30
0
10
-33.687110743612195
20
-34.762757464576673
30
0
10
-33.863001187883626
20
-34.334148496090798
30
0
10
-33.883543888453644
20
-33.871025054007795
30
0
10
-33.89413431472714
20
-33.632269947190615
30
0
0
LINE
5
256
100
AcDbEntity
8
0
100
AcDbLine
10
-20.147064479064298
20
-33.105902819295267
30
0
11
-20.147064479064298
21
-31.123480944295263
31
0
0
LINE
5
257
100
AcDbEntity
8
0
100
AcDbLine
10
-20.147064479064298
20
-31.123480944295263
30
0
11
-19.531830104064294
21
-31.123480944295263
31
0
0
LINE
5
258
100
AcDbEntity
8
0
100
AcDbLine
10
-19.531830104064294
20
-31.123480944295263
30
0
11
-19.531830104064294
21
-34.753363577981332
31
0
0
LINE
5
259
100
AcDbEntity
8
0
100
AcDbLine
10
-19.531830104064294
20
-34.753363577981332
30
0
11
-20.08554056472714
21
-34.753363577981332
31
0
0
LINE
5
260
100
AcDbEntity
8
0
100
AcDbLine
10
-20.08554056472714
20
-34.753363577981332
30
0
11
-20.08554056472714
21
-34.237250535149911
31
0
0
SPLINE
5
261
100
AcDbEntity
8
0
100
AcDbSpline
70
0
71
3
72
9
73
5
74
0
42
0.000000001
43
0.0000000001
44
0.0000000001
40
0
40
0
40
0
40
0
40
0.066343471114660518
40
0.13465075565028134
40
0.13465075565028134
40
0.13465075565028134
40
0.13465075565028134
10
-20.08554056472714
20
-34.237250535149911
30
0
10
-20.23544228230196
20
-34.411698906686624
30
0
10
-20.539682913755215
20
-34.765759444290758
30
0
10
-21.004842584161267
20
-34.811958595251149
30
0
10
-21.240814479064298
20
-34.835395066399911
30
0
0
SPLINE
5
262
100
AcDbEntity
8
0
100
AcDbSpline
70
0
71
3
72
9
73
5
74
0
42
0.000000001
43
0.0000000001
44
0.0000000001
40
0
40
0
40
0
40
0
40
0.031625761340746933
40
0.061790483602468596
40
0.061790483602468596
40
0.061790483602468596
40
0.061790483602468596
10
-21.240814479064298
20
-34.835395066399911
30
0
10
-21.346842785027647
20
-34.830963240944449
30
0
10
-21.554001127571169
20
-34.822304330406794
30
0
10
-21.74892752524034
20
-34.7518629302009
30
0
10
-21.844086201857877
20
-34.717475025315622
30
0
0
SPLINE
5
263
100
AcDbEntity
8
0
100
AcDbSpline
70
0
71
3
72
9
73
5
74
0
42
0.000000001
43
0.0000000001
44
0.0000000001
40
0
40
0
40
0
40
0
40
0.027646790470960896
40
0.051997010755230291
40
0.051997010755230291
40
0.051997010755230291
40
0.051997010755230291
10
-21.844086201857877
20
-34.717475025315622
30
0
10
-21.928344094160082
20
-34.67737653449803
30
0
10
-22.086813068591411
20
-34.601960848887053
30
0
10
-22.202005881879753
20
-34.469963419825341
30
0
10
-22.25595072097714
20
-34.408148972649911
30
0
0
SPLINE
5
264
100
AcDbEntity
8
0
100
AcDbSpline
70
0
71
3
72
9
73
5
74
0
42
0.000000001
43
0.0000000001
44
0.0000000001
40
0
40
0
40
0
40
0
40
0.023944190980933186
40
0.049595117504124223
40
0.049595117504124223
40
0.049595117504124223
40
0.049595117504124223
10
-22.25595072097714
20
-34.408148972649911
30
0
10
-22.298390098034151
20
-34.339940263946794
30
0
10
-22.386293919617451
20
-34.19866094798958
30
0
10
-22.426541570428626
20
-34.037112755740267
30
0
10
-22.447357924651456
20
-33.953558950085977
30
0
0
SPLINE
5
265
100
AcDbEntity
8
0
100
AcDbSpline
70
0
71
3
72
9
73
5
74
0
42
0.000000001
43
0.0000000001
44
0.0000000001
40
0
40
0
40
0
40
0
40
0.023637947596523774
40
0.059963917023525687
40
0.059963917023525687
40
0.059963917023525687
40
0.059963917023525687
10
-22.447357924651456
20
-33.953558950085977
30
0
10
-22.457221746447765
20
-33.87531779695766
30
0
10
-22.482243943883198
20
-33.676838381820062
30
0
10
-22.481804080270152
20
-33.476673644315113
30
0
10
-22.481537612151456
20
-33.355414418835977
30
0
0
LINE
5
266
100
AcDbEntity
8
0
100
AcDbLine
10
-22.481537612151456
20
-33.355414418835977
30
0
11
-22.481537612151456
21
-31.123480944295263
31
0
0
LINE
5
267
100
AcDbEntity
8
0
100
AcDbLine
10
-22.481537612151456
20
-31.123480944295263
30
0
11
-21.866303237151456
21
-31.123480944295263
31
0
0
LINE
5
268
100
AcDbEntity
8
0
100
AcDbLine
10
-21.866303237151456
20
-31.123480944295263
30
0
11
-21.866303237151456
21
-33.331488518376688
31
0
0
SPLINE
5
269
100
AcDbEntity
8
0
100
AcDbSpline
70
0
71
3
72
9
73
5
74
0
42
0.000000001
43
0.0000000001
44
0.0000000001
40
0
40
0
40
0
40
0
40
0.032904210013543919
40
0.056886582861213009
40
0.056886582861213009
40
0.056886582861213009
40
0.056886582861213009
10
-21.866303237151456
20
-33.331488518376688
30
0
10
-21.865712197578709
20
-33.441768280983148
30
0
10
-21.864690376309781
20
-33.632425915700573
30
0
10
-21.815333093441915
20
-33.816248261318073
30
0
10
-21.79452493972714
20
-33.893744496960977
30
0
0
SPLINE
5
270
100
AcDbEntity
8
0
100
AcDbSpline
70
0
71
3
72
9
73
5
74
0
42
0.000000001
43
0.0000000001
44
0.0000000001
40
0
40
0
40
0
40
0
40
0.019483226573399862
40
0.03971252491843294
40
0.03971252491843294
40
0.03971252491843294
40
0.03971252491843294
10
-21.79452493972714
20
-33.893744496960977
30
0
10
-21.765416085349962
20
-33.953037386567544
30
0
10
-21.706083710373679
20
-34.073893670156721
30
0
10
-21.595975262185519
20
-34.151550182214059
30
0
10
-21.539886744689298
20
-34.191107897420267
30
0
0
SPLINE
5
271
100
AcDbEntity
8
0
100
AcDbSpline
70
0
71
3
72
9
73
5
74
0
42
0.000000001
43
0.0000000001
44
0.0000000001
40
0
40
0
40
0
40
0
40
0.021543119054773182
40
0.04473857678229913
40
0.04473857678229913
40
0.04473857678229913
40
0.04473857678229913
10
-21.539886744689298
20
-34.191107897420267
30
0
10
-21.47488446022054
20
-34.223495215500577
30
0
10
-21.339894272061798
20
-34.290753931057253
30
0
10
-21.189108550100006
20
-34.298286497627409
30
0
10
-21.11093118972714
20
-34.302191881795267
30
0
0
SPLINE
5
272
100
AcDbEntity
8
0
100
AcDbSpline
70
0
71
3
72
9
73
5
74
0
42
0.000000001
43
0.0000000001
44
0.0000000001
40
0
40
0
40
0
40
0
40
0.037142555992344374
40
0.073551431569358311
40
0.073551431569358311
40
0.073551431569358311
40
0.073551431569358311
10
-21.11093118972714
20
-34.302191881795267
30
0
10
-20.984879942206256
20
-34.292216600785288
30
0
10
-20.73526734935788
20
-34.272463081432946
30
0
10
-20.532725414214347
20
-34.125452202203512
30
0
10
-20.432464631270719
20
-34.052679984231332
30
0
0
SPLINE
5
273
100
AcDbEntity
8
0
100
AcDbSpline
70
0
71
3
72
9
73
5
74
0
42
0.000000001
43
0.0000000001
44
0.0000000001
40
0
40
0
40
0
40
0
40
0.042007551489319353
40
0.10097353669740064
40
0.10097353669740064
40
0.10097353669740064
40
0.10097353669740064
10
-20.432464631270719
20
-34.052679984231332
30
0
10
-20.349797442870795
20
-33.936047574866699
30
0
10
-20.15109035127341
20
-33.655698293617121
30
0
10
-20.148548724598506
20
-33.308599635067239
30
0
10
-20.147064479064298
20
-33.105902819295267
30
0
0
LINE
5
274
100
AcDbEntity
8
0
100
AcDbLine
10
-11.851654203605005
20
-34.941351859231332
30
0
11
-10.788666011761972
21
-31.123480944295263
31
0
0
LINE
5
275
100
AcDbEntity
8
0
100
AcDbLine
10
-10.788666011761972
20
-31.123480944295263
30
0
11
-10.11190816945965
21
-31.123480944295263
31
0
0
LINE
5
276
100
AcDbEntity
8
0
100
AcDbLine
10
-10.11190816945965
20
-31.123480944295263
30
0
11
-8.7823183853142943
21
-36.134222893376688
31
0
0
LINE
5
277
100
AcDbEntity
8
0
100
AcDbLine
10
-8.7823183853142943
20
-36.134222893376688
30
0
11
-9.4624941814654555
21
-36.134222893376688
31
0
0
LINE
5
278
100
AcDbEntity
8
0
100
AcDbLine
10
-9.4624941814654555
20
-36.134222893376688
30
0
11
-10.224701168011972
21
-32.849555163045267
31
0
0
SPLINE
5
279
100
AcDbEntity
8
0
100
AcDbSpline
70
0
71
3
72
9
73
5
74
0
42
0.000000001
43
0.0000000001
44
0.0000000001
40
0
40
0
40
0
40
0
40
0.052699367623799696
40
0.1047182372794004
40
0.1047182372794004
40
0.1047182372794004
40
0.1047182372794004
10
-10.224701168011972
20
-32.849555163045267
30
0
10
-10.264194968170832
20
-32.678361111917106
30
0
10
-10.342672591766318
20
-32.33818360931717
30
0
10
-10.405436953099422
20
-31.994760331165743
30
0
10
-10.43661520070965
20
-31.824164538045263
30
0
0
SPLINE
5
280
100
AcDbEntity
8
0
100
AcDbSpline
70
0
71
3
72
9
73
5
74
0
42
0.000000001
43
0.0000000001
44
0.0000000001
40
0
40
0
40
0
40
0
40
0.065119056698888914
40
0.09533536529057679
40
0.09533536529057679
40
0.09533536529057679
40
0.09533536529057679
10
-10.43661520070965
20
-31.824164538045263
30
0
10
-10.486601290658752
20
-32.03539920759016
30
0
10
-10.559781744834877
20
-32.344650222638109
30
0
10
-10.637552081627121
20
-32.652774577528277
30
0
10
-10.662201197814294
20
-32.750433830876688
30
0
0
LINE
5
281
100
AcDbEntity
8
0
100
AcDbLine
10
-10.662201197814291
20
-32.750433830876688
30
0
11
-11.61581441945965
21
-36.134222893376688
31
0
0
LINE
5
282
100
AcDbEntity
8
0
100
AcDbLine
10
-11.61581441945965
20
-36.134222893376688
30
0
11
-12.415619047355005
21
-36.134222893376688
31
0
0
LINE
5
283
100
AcDbEntity
8
0
100
AcDbLine
10
-12.415619047355005
20
-36.134222893376688
30
0
11
-13.133392484855005
21
-33.598090259690622
31
0
0
SPLINE
5
284
100
AcDbEntity
8
0
100
AcDbSpline
70
0
71
3
72
9
73
5
74
0
42
0.000000001
43
0.0000000001
44
0.0000000001
40
0
40
0
40
0
40
0
40
0.094421378007302451
40
0.18172526864823663
40
0.18172526864823663
40
0.18172526864823663
40
0.18172526864823663
10
-13.133392484855005
20
-33.598090259690622
30
0
10
-13.216268090260495
20
-33.294215566219364
30
0
10
-13.37577213451976
20
-32.709372266196851
30
0
10
-13.47525000997349
20
-32.111427371922645
30
0
10
-13.52304086275036
20
-31.824164538045263
30
0
0
SPLINE
5
285
100
AcDbEntity
8
0
100
AcDbSpline
70
0
71
3
72
9
73
5
74
0
42
0.000000001
43
0.0000000001
44
0.0000000001
40
0
40
0
40
0
40
0
40
0.052190508955208346
40
0.11185891832311526
40
0.11185891832311526
40
0.11185891832311526
40
0.11185891832311526
10
-13.52304086275036
20
-31.824164538045263
30
0
10
-13.558882210106802
20
-31.994414097235943
30
0
10
-13.63570028348439
20
-32.359306716934306
30
0
10
-13.724946529164885
20
-32.721365232727337
30
0
10
-13.772552760314291
20
-32.914496509690622
30
0
0
LINE
5
286
100
AcDbEntity
8
0
100
AcDbLine
10
-13.772552760314291
20
-32.914496509690622
30
0
11
-14.558685572814291
21
-36.134222893376688
31
0
0
LINE
5
287
100
AcDbEntity
8
0
100
AcDbLine
10
-14.558685572814291
20
-36.134222893376688
30
0
11
-15.225189479064294
21
-36.134222893376688
31
0
0
LINE
5
288
100
AcDbEntity
8
0
100
AcDbLine
10
-15.225189479064294
20
-36.134222893376688
30
0
11
-13.851165922355005
21
-31.123480944295263
31
0
0
LINE
5
289
100
AcDbEntity
8
0
100
AcDbLine
10
-13.851165922355005
20
-31.123480944295263
30
0
11
-13.212005944918936
21
-31.123480944295263
31
0
0
LINE
5
290
100
AcDbEntity
8
0
100
AcDbLine
10
-13.212005944918936
20
-31.123480944295263
30
0
11
-12.15585336275036
21
-34.941351859231332
31
0
0
SPLINE
5
291
100
AcDbEntity
8
0
100
AcDbSpline
70
0
71
3
72
9
73
5
74
0
42
0.000000001
43
0.0000000001
44
0.0000000001
40
0
40
0
40
0
40
0
40
0.04005006716707462
40
0.060857625662378352
40
0.060857625662378352
40
0.060857625662378352
40
0.060857625662378352
10
-12.15585336275036
20
-34.941351859231332
30
0
10
-12.119736407972484
20
-35.069884448702062
30
0
10
-12.06485529866578
20
-35.265194688327746
30
0
10
-12.015501406958682
20
-35.461965556361832
30
0
10
-11.998627038668939
20
-35.529242603440622
30
0
0
SPLINE
5
292
100
AcDbEntity
8
0
100
AcDbSpline
70
0
71
3
72
9
73
5
74
0
42
0.000000001
43
0.0000000001
44
0.0000000001
40
0
40
0
40
0
40
0
40
0.032850425612182314
40
0.06060301996524612
40
0.06060301996524612
40
0.06060301996524612
40
0.06060301996524612
10
-11.998627038668939
20
-35.529242603440622
30
0
10
-11.973990870880954
20
-35.42253665268575
30
0
10
-11.92854165247665
20
-35.225683712624914
30
0
10
-11.875804634744437
20
-35.030660802978346
30
0
10
-11.851654203605005
20
-34.941351859231332
30
0
0
LWPOLYLINE
5
293
100
AcDbEntity
8
0
100
AcDbPolyline
90
4
70
1
43
0.0
10
-65
20
-5
10
-5
20
-5
10
-5
20
-45
10
-65
20
-45
0
ENDSEC
0
SECTION
2
OBJECTS
0
DICTIONARY
5
C
100
AcDbDictionary
3
ACAD_GROUP
350
D
3
ACAD_MLINESTYLE
350
17
0
DICTIONARY
5
D
100
AcDbDictionary
0
DICTIONARY
5
1A
330
C
100
AcDbDictionary
0
DICTIONARY
5
17
100
AcDbDictionary
0
ENDSEC
0
EOF
